<svg width="16" height="16" viewBox="0 0 16 16" fill="none" xmlns="http://www.w3.org/2000/svg">
<path d="M9.5 14.5L8 13L9.5 11.5" stroke="#1A1A1A" stroke-linecap="round" stroke-linejoin="round"/>
<path d="M12.1625 4.7002L11.6125 6.7502L9.56873 6.2002" stroke="#1A1A1A" stroke-linecap="round" stroke-linejoin="round"/>
<path d="M4.93752 8.8L4.38752 6.75L2.33752 7.3" stroke="#1A1A1A" stroke-linecap="round" stroke-linejoin="round"/>
<path d="M8 12.9996H13.5C13.6752 12.999 13.8472 12.9523 13.9988 12.8643C14.1503 12.7763 14.276 12.65 14.3634 12.4981C14.4507 12.3462 14.4966 12.174 14.4965 11.9987C14.4963 11.8235 14.4501 11.6514 14.3625 11.4996L12.8687 8.91211" stroke="#1A1A1A" stroke-linecap="round" stroke-linejoin="round"/>
<path d="M4.38752 6.75L1.63752 11.5C1.5499 11.6518 1.5037 11.8239 1.50354 11.9991C1.50339 12.1744 1.54928 12.3466 1.63663 12.4985C1.72399 12.6504 1.84972 12.7767 2.00125 12.8647C2.15278 12.9527 2.32478 12.9994 2.50002 13H5.50002" stroke="#1A1A1A" stroke-linecap="round" stroke-linejoin="round"/>
<path d="M11.6125 6.75016L8.86245 2.00016C8.77549 1.8482 8.64992 1.72192 8.49847 1.63409C8.34701 1.54626 8.17503 1.5 7.99995 1.5C7.82487 1.5 7.6529 1.54626 7.50144 1.63409C7.34998 1.72192 7.22441 1.8482 7.13745 2.00016L5.63745 4.58766" stroke="#1A1A1A" stroke-linecap="round" stroke-linejoin="round"/>
</svg>
