<svg width="16" height="16" viewBox="0 0 16 16" fill="none" xmlns="http://www.w3.org/2000/svg">
<path d="M8 14.5V5.5" stroke="#1A1A1A" stroke-linecap="round" stroke-linejoin="round"/>
<path d="M8 9.5L5 8" stroke="#1A1A1A" stroke-linecap="round" stroke-linejoin="round"/>
<path d="M8 8L11 6.5" stroke="#1A1A1A" stroke-linecap="round" stroke-linejoin="round"/>
<path d="M8.28128 11.3248C8.74001 11.6372 9.25875 11.8508 9.8045 11.9519C10.3502 12.0529 10.9111 12.0394 11.4513 11.9119C11.9915 11.7845 12.4992 11.5461 12.9423 11.2118C13.3854 10.8775 13.754 10.4546 14.0248 9.97012C14.2955 9.48561 14.4625 8.95006 14.515 8.39752C14.5676 7.84499 14.5046 7.28756 14.33 6.7607C14.1555 6.23384 13.8732 5.74907 13.5011 5.33723C13.129 4.92539 12.6753 4.59549 12.1688 4.36852C12.0576 4.3126 11.9692 4.21982 11.9188 4.10601C11.5948 3.33412 11.05 2.6751 10.3528 2.21166C9.65568 1.74821 8.83718 1.50098 8.00003 1.50098C7.16288 1.50098 6.34438 1.74821 5.64722 2.21166C4.95006 2.6751 4.4053 3.33412 4.08128 4.10601C4.03086 4.21982 3.9425 4.3126 3.83128 4.36852C3.32478 4.59549 2.87106 4.92539 2.49898 5.33723C2.1269 5.74907 1.8446 6.23384 1.67003 6.7607C1.49547 7.28756 1.43246 7.84499 1.48501 8.39752C1.53757 8.95006 1.70454 9.48561 1.97531 9.97012C2.24607 10.4546 2.6147 10.8775 3.05776 11.2118C3.50081 11.5461 4.00859 11.7845 4.5488 11.9119C5.08901 12.0394 5.64982 12.0529 6.19557 11.9519C6.74131 11.8508 7.26005 11.6372 7.71878 11.3248C7.80233 11.2699 7.90009 11.2407 8.00003 11.2407C8.09997 11.2407 8.19773 11.2699 8.28128 11.3248Z" stroke="#1A1A1A" stroke-linecap="round" stroke-linejoin="round"/>
</svg>
