<svg width="222" height="221" viewBox="0 0 222 221" fill="none" xmlns="http://www.w3.org/2000/svg">
<path d="M16.5827 61.3537C16.4667 62.363 22.5045 73.6474 22.5045 73.6474L34.5398 75.7324L16.5827 61.3537Z" fill="white"/>
<path d="M104.767 24.2319L103.811 35.3336L113.487 48.1611L111.091 38.4271L104.767 24.2319Z" fill="white"/>
<path d="M123.251 0.500166C123.135 1.51672 125.222 17.5988 125.222 17.5988L126.82 29.8193C126.82 29.8193 132.368 20.0561 131.812 15.8802C131.258 11.6969 123.251 0.500166 123.251 0.500166Z" fill="white"/>
<path d="M85.0059 87.2179C85.0059 87.2179 87.8175 94.2241 91.2075 96.1519C94.5975 98.0789 96.8835 97.9269 96.8835 97.9269C96.8835 97.9269 96.0052 87.539 85.0059 87.2179Z" fill="white"/>
<path d="M44.5939 144.982L49.1848 146.326C49.1848 146.326 43.8878 155.705 39.1987 157.026C34.5102 158.346 30.956 158.765 26.8467 155.007C22.736 151.249 22.0835 149.734 22.0835 149.734L44.5939 144.982Z" fill="white"/>
<path d="M79.4748 143.896L75.7505 157.568L85.0716 149.984L85.9492 143.19L79.4748 143.896Z" fill="white"/>
<path d="M64.2462 168.919C64.2462 168.919 59.6934 188.053 60.5108 187.22C61.3276 186.387 71.3137 175.687 71.3137 175.687L64.2462 168.919Z" fill="white"/>
<path d="M187.784 87.6582L207.647 73.5523L197.861 85.2002L187.784 87.6582Z" fill="white"/>
<path d="M191.772 103.338C191.772 103.338 203.947 95.1499 204.831 94.6328C205.715 94.1158 215.177 93.44 215.177 93.44C215.177 93.44 210.545 99.7046 206.874 101.14C203.204 102.577 196.047 104.748 191.772 103.338Z" fill="white"/>
<path d="M193.02 185.627C186.455 182.537 179.371 180.278 172.599 177.662C165.937 175.087 159.278 172.504 152.61 169.94C149.224 168.639 145.837 167.338 142.45 166.039C142.7 166.675 142.961 167.313 143.227 167.952C146.416 169.209 149.607 170.466 152.797 171.719C159.443 174.328 166.094 176.924 172.742 179.526C179.272 182.083 185.794 185.094 192.491 187.177C193.501 187.491 193.941 186.06 193.02 185.627Z" fill="#121212"/>
<path d="M132.136 162.087C125.746 159.639 119.366 157.003 112.825 155.007C112.465 154.898 112.311 155.402 112.637 155.557C119.099 158.642 125.905 161.092 132.558 163.74C132.411 163.191 132.271 162.64 132.136 162.087Z" fill="#121212"/>
<path d="M193.447 163.84C192.035 157.593 190.472 151.381 188.747 145.213C185.161 132.39 180.908 119.774 175.98 107.404C175.856 107.093 175.308 107.18 175.437 107.537C179.897 119.875 183.825 132.412 187.092 145.118C188.766 151.632 190.278 158.19 191.62 164.78C192.892 171.025 193.54 177.511 195.107 183.677C195.386 184.771 197.334 184.667 197.243 183.429C196.76 176.905 194.886 170.214 193.447 163.84Z" fill="#121212"/>
<path d="M197.015 185.306C196.436 185.149 195.991 185.548 195.977 186.104C195.966 186.516 196.252 186.8 196.359 187.181C196.447 187.489 196.443 187.809 196.381 188.121C196.304 188.509 196.134 188.838 195.897 189.114C195.497 188.462 195.04 187.818 194.373 187.526C194.22 187.459 194.06 187.501 194.008 187.669C193.721 188.624 194.468 189.784 194.826 190.643C195.009 191.082 195.534 191.393 196.012 191.26C197.27 190.911 198.129 189.879 198.403 188.62C198.659 187.439 198.354 185.668 197.015 185.306Z" fill="#121212"/>
<path d="M105.104 151.284C105.472 150.7 105.852 150.124 106.248 149.561C103.997 148.109 101.925 146.487 100.13 144.155C97.278 140.453 95.3513 135.991 94.9246 131.323C94.899 131.039 94.4144 131.006 94.429 131.32C94.6578 136.358 96.1006 141.076 99.075 145.197C100.637 147.361 102.725 149.595 105.104 151.284Z" fill="#121212"/>
<path d="M163.8 88.7217C164.132 88.2127 164.471 87.7088 164.823 87.2137C162.21 85.0884 159.313 83.4488 156.358 82.5983C155.997 82.4951 155.925 82.9361 156.184 83.1094C158.849 84.8931 161.451 86.6308 163.8 88.7217Z" fill="#121212"/>
<path d="M166.452 91.3867L166.603 91.5528C169.483 94.9359 171.153 98.586 172.971 102.581C173.346 103.403 175.183 103.531 174.897 102.357C173.827 97.9424 171.139 93.4411 167.62 89.7881C167.222 90.3154 166.836 90.8499 166.452 91.3867Z" fill="#121212"/>
<path d="M106.621 96.3119C99.2866 103.42 94.9046 113.606 94.6363 123.796C94.6282 124.138 95.2565 124.25 95.3123 123.882C96.846 113.795 101.018 104.981 107.785 97.3284C108.4 96.6337 107.25 95.702 106.621 96.3119Z" fill="#121212"/>
<path d="M104.401 141.484C104.316 141.276 104.1 141.179 103.892 141.171C103.765 140.98 103.632 140.792 103.507 140.595C103.255 140.196 102.543 140.451 102.794 140.92C103.196 141.674 103.636 142.399 104.103 143.098C104.99 144.916 106.121 146.503 107.43 147.885C107.808 147.414 108.201 146.956 108.608 146.509C107.254 145.335 106.004 144.021 104.887 142.564C104.714 142.21 104.551 141.851 104.401 141.484Z" fill="#121212"/>
<path d="M130.289 153.652C124.768 153.919 119.21 152.806 114.341 150.335C113.927 150.918 113.521 151.507 113.123 152.101C115.406 153.279 117.898 154.109 120.484 154.596C123.792 155.53 127.26 155.933 130.706 155.816C130.557 155.096 130.42 154.375 130.289 153.652Z" fill="#121212"/>
<path d="M127.808 105.877C124.207 101.745 120.068 97.9401 115.814 94.3252L115.891 94.26C114.411 93.3064 113.052 92.2116 111.81 90.9925C110.714 90.0944 109.619 89.2051 108.532 88.3238C101.893 82.9478 94.9643 77.9243 87.789 73.284C73.1049 63.7898 57.3856 56.045 40.9611 50.0335C40.6656 49.9311 40.5131 50.3918 40.802 50.5015C56.7815 56.6593 72.1196 64.4846 86.4759 73.8054C93.8 78.5605 100.865 83.7054 107.627 89.2292C108.794 90.1821 109.932 91.1599 111.061 92.1479C110.791 92.4419 110.524 92.7404 110.265 93.0417C110.03 93.3152 110.467 93.6662 110.717 93.4359C111.012 93.1623 111.31 92.8939 111.61 92.6299C112.093 93.0563 112.577 93.4834 113.055 93.9149C103.75 103.078 98.7876 116.046 97.2473 129.096C97.1358 130.04 98.9701 130.4 99.1322 129.427C100.766 119.653 103.98 109.9 109.745 101.861C110.97 99.5052 112.67 97.3288 114.67 95.3827C118.729 99.1117 122.671 102.955 126.8 106.63C127.328 107.099 128.356 106.506 127.808 105.877Z" fill="#121212"/>
<path d="M142.702 82.4511C135.678 81.8938 128.441 83.5152 122.12 87.0753C121.245 87.5675 120.4 88.0897 119.576 88.6338C119.269 88.263 118.958 87.8966 118.647 87.5287C125.838 83.2907 133.87 81.2876 142.502 81.1281C142.411 80.5343 142.313 79.9427 142.2 79.3517L142.182 79.2033C133.623 78.7381 124.82 81.5033 117.697 86.4157C113.993 82.1381 110.018 78.0887 105.823 74.2945C94.9332 64.4413 82.5043 56.287 69.0848 50.29C61.4631 46.8893 53.5386 44.2638 45.3978 42.4136C45.0239 42.3258 44.9586 42.8304 45.3054 42.9255C72.2388 50.2754 96.8299 65.3555 115.15 86.3945C115.308 86.4522 115.459 86.5466 115.59 86.6951C115.669 86.7836 115.741 86.8742 115.818 86.9627L115.82 86.9612C118.209 89.7469 120.575 92.5406 122.425 95.7102C125.481 100.103 128.275 104.638 131.314 109.108C131.871 109.929 133.582 109.524 133.076 108.427C130.117 102.003 125.486 95.9837 121.083 90.4797C124.159 88.6236 127.454 87.2238 130.612 86.3893C131.608 86.0836 132.614 85.8181 133.628 85.6031C133.278 85.7084 132.93 85.8248 132.582 85.9403L132.691 85.9176C133.988 85.6733 135.268 85.5351 136.527 85.4846C137.685 85.2301 138.864 85.0312 140.066 84.9018C141.08 84.8945 142.094 84.9486 143.106 85.0488C142.958 84.1843 142.829 83.3185 142.702 82.4511Z" fill="#121212"/>
<path d="M162.277 91.2306C161.688 90.6383 161.076 90.0591 160.413 89.5113C157.693 87.2625 154.69 85.5672 151.528 84.3883C151.602 85.331 151.66 86.2766 151.695 87.2266C152.502 87.5703 153.303 87.9514 154.091 88.3807C156.81 89.8594 159.077 91.7053 160.936 93.8115C161.352 92.9376 161.801 92.0775 162.277 91.2306Z" fill="#121212"/>
<path d="M163.048 96.6117C167.639 103.636 168.495 112.752 166.22 121.389C163.145 133.065 155.095 143.987 144.318 149.735C142.21 150.801 140.015 151.69 137.76 152.401C138.051 153.127 138.326 153.861 138.59 154.601C151.637 150.952 162.078 139.882 167.1 127.594C171.56 116.683 171.762 103.45 164.675 93.995C164.115 94.8551 163.572 95.7276 163.048 96.6117Z" fill="#121212"/>
<path d="M132.331 162.871C126.79 160.591 121.179 158.168 115.442 156.592C114.949 156.458 114.779 157.096 115.192 157.325C120.811 160.44 126.983 162.77 132.968 165.203C132.739 164.431 132.529 163.652 132.331 162.871Z" fill="#121212"/>
<path d="M195.269 188.474C188.739 185.257 181.698 182.815 174.951 180.075C168.326 177.385 161.694 174.714 155.065 172.033C151.009 170.394 146.949 168.761 142.889 167.131C143.244 168.001 143.612 168.873 143.979 169.749C147.682 171.284 151.387 172.817 155.093 174.344C161.7 177.065 168.301 179.804 174.914 182.507C181.424 185.167 187.921 188.232 194.602 190.427C195.878 190.846 196.409 189.034 195.269 188.474Z" fill="#121212"/>
<path d="M190.061 145.601C186.432 131.961 182.05 118.145 175.921 105.401C175.671 104.881 174.741 104.988 174.962 105.635C179.441 118.74 184.105 131.673 187.566 145.102C189.336 151.964 190.874 158.879 192.192 165.841C193.493 172.715 194.077 179.77 195.51 186.601C195.79 187.937 198.028 188.223 197.963 186.616C197.68 179.541 196.005 172.261 194.638 165.326C193.332 158.704 191.795 152.124 190.061 145.601Z" fill="#121212"/>
<path d="M105.177 125.496C100.469 121.296 94.0116 118.32 88.2265 115.927C82.3139 113.482 76.1414 111.671 69.8361 110.567C57.1695 108.35 43.9437 108.886 31.5888 112.525C22.9701 115.063 14.8595 119.011 6.88389 123.084C6.60785 123.225 6.914 123.59 7.16255 123.476C20.4344 117.415 33.5441 111.652 48.2816 110.564C61.0106 109.623 74.0064 111.573 85.8701 116.283C89.0608 117.55 92.1728 119.02 95.1801 120.674C98.3913 122.44 101.282 124.662 104.426 126.517C105.112 126.922 105.782 126.036 105.177 125.496Z" fill="#121212"/>
<path d="M107.042 128.788C82.2445 114.896 51.1642 112.749 24.2542 121.327C16.6967 123.736 9.28088 126.961 2.62008 131.286C2.39334 131.433 2.64975 131.748 2.86543 131.632C15.2276 124.939 28.3136 120.248 42.3143 118.484C56.267 116.726 70.5983 117.689 84.1713 121.374C91.8913 123.471 99.2121 126.524 106.273 130.259C107.334 130.82 108.084 129.372 107.042 128.788Z" fill="#121212"/>
<path d="M219.786 47.3275C201.842 51.2328 184.809 61.9322 172.457 75.3236C160.635 88.1403 152.609 104.047 149.144 121.099C149.029 121.668 150.002 121.945 150.141 121.346C152.254 112.252 155.674 103.47 160.248 95.3351C162.491 90.1053 165.839 85.2785 169.88 81.2452C171.185 79.6619 172.537 78.1173 173.943 76.6218C180.177 69.9864 187.377 64.2579 195.238 59.6505C203.235 54.9699 211.68 51.8764 220.543 49.2801C221.919 48.8779 221.015 47.0569 219.786 47.3275Z" fill="#121212"/>
<path d="M219.203 56.9306C211.449 58.1007 203.491 61.7062 196.686 65.4653C189.518 69.4306 182.962 74.3692 176.997 79.9661C172.287 84.3863 167.979 89.3228 164.248 94.6564C163.531 95.7812 162.834 96.9184 162.179 98.0835C162.057 98.3007 161.886 98.4279 161.699 98.49C157.375 105.417 154.044 112.939 152.094 120.85C151.993 121.256 152.745 121.569 152.888 121.15C158.079 106.078 166.302 92.3454 177.916 81.3125C183.644 75.8699 190.173 71.256 197.132 67.513C204.472 63.5638 212.067 61.3552 219.954 58.8759C221.343 58.4371 220.41 56.7478 219.203 56.9306Z" fill="#121212"/>
<path d="M155.637 213.015C152.112 207.812 148.498 202.764 145.456 197.248C142.228 191.399 139.471 185.288 137.184 179.015C135.511 174.431 134.079 169.755 132.912 165.016C132.523 163.68 132.187 162.326 131.867 160.971C130.914 156.954 130.005 152.936 129.6 148.83C128.832 146.274 128.428 143.363 128.759 140.728C128.554 140.673 128.342 140.73 128.326 140.984C127.931 147.304 129.123 154 130.308 160.188C131.527 166.558 133.215 172.835 135.378 178.951C139.7 191.181 145.805 203.79 154.122 213.848C154.812 214.681 156.34 214.055 155.637 213.015Z" fill="#121212"/>
<path d="M170.366 214.855C166.851 208.945 162.886 203.319 159.463 197.342C155.912 191.143 152.631 184.79 149.622 178.311C143.91 166.012 139.216 153.286 135.455 140.264C135.526 141.337 135.676 142.408 135.863 143.475C136.144 143.68 136.342 144.003 136.362 144.455C136.402 145.344 136.484 146.229 136.597 147.11L136.628 147.252C136.65 147.356 136.659 147.456 136.66 147.552C136.799 148.547 136.976 149.538 137.186 150.524C137.397 151.199 137.602 151.875 137.818 152.547C138.869 155.19 139.714 157.936 140.581 160.65C142.901 167.093 145.484 173.44 148.336 179.669C151.087 185.68 154.079 191.581 157.289 197.36C160.759 203.607 164.326 210.098 168.68 215.782C169.429 216.76 171.069 216.038 170.366 214.855Z" fill="#121212"/>
<path d="M152.535 140.145C149.648 135.998 144.95 131.888 139.762 131.256C135.595 130.748 130.847 132.565 129.514 136.804C129.449 137.01 129.611 137.144 129.795 137.174C130.838 135.125 132.66 133.578 135.56 133.046C135.913 132.981 136.226 133.046 136.491 133.185C137.967 132.973 139.51 133.093 140.998 133.565C139.617 133.744 138.305 134.229 137.234 135.013C137.123 135.263 136.906 135.462 136.574 135.567C136.342 135.79 136.12 136.025 135.925 136.284C135.715 136.562 136.062 136.965 136.372 136.779C139.857 134.687 142.999 134.762 146.027 136.496C147.745 137.974 149.249 139.73 150.856 141.4C151.714 142.291 153.301 141.246 152.535 140.145Z" fill="#121212"/>
<path d="M127.436 139.602C122.457 142.166 118.069 145.751 114.551 150.044C112.762 152.53 111.144 155.144 109.561 157.783C108.726 159.477 108.004 161.23 107.423 163.041C104.141 173.262 105.446 184.454 110.451 193.844C107.491 191.937 104.525 190.037 101.509 188.222C101.188 188.028 100.523 188.153 100.502 188.619C100.435 190.133 100.302 191.677 100.209 193.222C97.7944 185.271 97.2981 177.039 98.6134 169.17C98.5642 168.988 98.5525 168.784 98.5936 168.559C99.6764 162.668 101.762 156.694 104.979 151.493C105.427 150.265 106.276 149.116 107.045 148.164C107.295 147.853 107.558 147.544 107.826 147.237C108.413 146.451 109.036 145.698 109.704 145.007C112.321 141.889 115.352 139.037 118.805 136.544C119.42 136.1 118.675 135.162 118.112 135.566C114.19 138.378 110.739 141.688 107.789 145.354C106.045 143.686 104.5 141.807 103.198 139.782C101.195 136.665 100.225 133.388 98.9183 129.983C98.8223 129.733 98.381 129.731 98.3993 130.043C98.7497 136.056 102.492 142.182 106.853 146.539C95.8487 161.039 92.5972 180.762 100.072 198.116C100.107 198.201 100.157 198.271 100.209 198.337C100.217 198.426 100.22 198.516 100.229 198.606C100.265 198.958 100.831 199.073 100.928 198.701C101.495 198.751 102.057 198.386 101.781 197.698C101.624 197.308 101.476 196.916 101.33 196.524C101.63 194.372 101.698 192.154 101.843 189.992C105.308 192.337 108.839 194.588 112.357 196.853C113.066 197.311 113.819 196.486 113.391 195.81C104.605 181.948 105.933 164.729 115.032 152.438C119.173 154.517 123.764 155.706 128.401 155.827C129.935 155.867 129.542 153.763 128.175 153.698C123.993 153.504 119.928 152.621 116.179 150.964C119.447 146.975 123.575 143.576 128.49 141.091C129.523 140.569 128.373 139.12 127.436 139.602Z" fill="#121212"/>
<path d="M136.263 130.542C131.152 129.125 125.406 130.222 121.398 133.705C121.133 133.936 121.551 134.3 121.81 134.161C126.405 131.714 130.901 130.813 136.05 131.727C136.915 131.881 137.064 130.764 136.263 130.542Z" fill="#121212"/>
<path d="M170.127 30.6385C167.257 31.7574 164.457 33.0884 161.66 34.3975C162.075 32.7959 162.486 31.1943 162.88 29.5854C163.055 28.876 162.081 28.3202 161.5 28.6493C150.608 34.8802 144.166 46.3988 141.83 58.4438C138.924 73.4413 142.195 88.9645 145.809 103.54C145.949 104.1 147.06 104.05 146.924 103.41C143.907 89.2249 140.629 74.5799 143.181 60.0454C145.167 48.739 150.845 37.7251 160.544 31.2967C160.13 32.8106 159.722 34.3244 159.318 35.8456C159.106 36.6428 160.169 37.1108 160.781 36.8329C163.086 35.7871 165.42 34.7632 167.717 33.6808C161.321 42.2667 156.339 51.5839 153.748 62.0931C150.893 73.6752 150.949 85.7796 153.799 97.3507C154.028 98.281 155.633 98.0118 155.348 96.9711C149.339 75.0421 154.787 48.1759 171.257 31.8818C171.982 31.1651 170.836 30.3533 170.127 30.6385Z" fill="#121212"/>
<path d="M146.772 106.682C146.654 106.497 146.222 106.523 146.284 106.801C146.993 109.956 148.507 113.535 150.098 116.348C150.345 116.785 151.059 116.536 150.915 116.031C150.034 112.943 148.504 109.392 146.772 106.682Z" fill="#121212"/>
<path d="M37.2764 157.491C31.5395 160.463 26.3276 155.084 22.9449 150.99C30.0953 149.698 37.1825 147.846 44.25 146.182C44.4978 146.124 44.4949 145.902 44.3769 145.749C45.8211 146.175 47.272 146.585 48.7207 146.997C46.8937 148.736 45.066 150.473 43.2397 152.213C41.3908 153.974 39.5616 156.306 37.2764 157.491ZM50.275 146.015C47.687 145.267 45.1071 144.48 42.5022 143.794C41.5484 143.543 41.4018 144.837 42.2669 145.108C42.8248 145.284 43.3856 145.454 43.9472 145.62C36.6063 147.072 29.1627 148.346 21.9171 150.222C21.6253 150.298 21.4867 150.648 21.6825 150.894C25.0754 155.15 29.3064 160.036 35.3475 159.422C38.1671 159.136 40.0286 157.332 42.011 155.474C44.9348 152.733 47.8278 149.959 50.7332 147.198C51.1767 146.777 50.7464 146.151 50.275 146.015Z" fill="#121212"/>
<path d="M69.8712 176.282C69.7884 176.772 68.1337 178.319 67.8045 178.705C65.7986 181.057 63.6835 183.379 61.8001 185.85C62.5757 180.379 63.2348 175.203 64.8932 169.907C66.0127 171.218 67.1806 172.491 68.3258 173.779C68.9203 174.449 70.0442 175.26 69.8712 176.282ZM71.6623 175.626C69.4313 173.11 67.262 170.517 64.9225 168.099C64.4665 167.629 63.5765 168.161 63.9196 168.729C61.8426 174.262 60.3323 180.772 60.9548 186.682C60.9621 186.753 60.9987 186.814 61.0464 186.866C60.8184 187.182 60.5919 187.5 60.3734 187.821C60.1784 188.109 60.6776 188.382 60.8998 188.18C64.7971 184.636 68.1491 180.354 71.6249 176.404C71.8038 176.201 71.8573 175.846 71.6623 175.626Z" fill="#121212"/>
<path d="M123.675 3.14064C123.56 2.59945 122.575 2.51169 122.683 3.14064C123.58 8.32579 124.303 13.6572 125.641 18.7472C125.783 19.2884 126.796 19.2519 126.718 18.623C126.079 13.4451 124.761 8.25266 123.675 3.14064Z" fill="#121212"/>
<path d="M131.989 16.2017C131.559 14.0004 130.376 12.0405 129.325 10.0878C127.728 7.12593 126.143 4.14942 124.491 1.21677C124.333 0.938868 123.777 1.09972 123.938 1.42882C126.105 5.9192 129.349 10.5486 130.556 15.4046C131.718 20.0779 129.643 24.0197 127.701 28.0347C127.35 24.5243 126.731 20.9774 126.141 17.5621C126.088 17.2549 125.576 17.2037 125.593 17.5621C125.799 21.7307 126.016 26.0967 126.669 30.2507L126.652 30.2873C126.527 30.5725 126.615 30.8357 126.794 31.004C126.831 31.216 126.862 31.4281 126.901 31.6402C127.008 32.2253 127.983 32.335 127.958 31.6475C127.948 31.3989 127.93 31.1502 127.917 30.8943C130.651 26.8427 132.958 21.1529 131.989 16.2017Z" fill="#121212"/>
<path d="M204.192 101.288C200.51 102.573 196.415 102.407 192.857 104.005C197.061 101.284 201.341 98.5957 205.366 95.6162C205.45 95.6769 205.552 95.7156 205.644 95.7039C207.897 95.4246 210.301 94.8271 212.596 94.1031C210.324 97.114 207.962 99.9713 204.192 101.288ZM215.459 91.8915L215.426 91.8989C215.182 91.569 214.649 91.3906 214.378 91.7409C214.256 91.8996 214.135 92.0598 214.013 92.2192C211.542 92.8043 208.92 93.5816 206.596 94.5821C206.676 94.2135 206.109 93.7667 205.733 93.9941C200.789 96.9794 196.108 100.496 191.407 103.843C191.027 104.113 191.307 104.612 191.664 104.656C191.538 104.866 191.795 105.178 192.06 105.107C196.822 103.811 202.222 103.999 206.693 101.812C210.305 100.045 212.973 96.6788 215.025 93.2774C215.31 93.1728 215.597 93.0697 215.874 92.9637C216.601 92.6865 216.144 91.7452 215.459 91.8915Z" fill="#121212"/>
<path d="M23.7154 73.7842C21.8657 69.838 19.3239 65.7425 16.7176 62.1297C19.8085 64.3602 22.7902 66.8395 26.079 68.7563C26.4463 68.9699 26.8224 68.6912 26.8488 68.3672L26.9082 68.5464C28.6472 70.6285 30.4009 72.7004 32.192 74.7408C29.4016 74.2633 26.4911 74.0285 23.7154 73.7842ZM34.887 76.1033L34.7719 75.9789C34.9955 75.7712 34.8789 75.2908 34.5043 75.2023C34.3181 75.1591 34.1275 75.1225 33.9398 75.0808C31.7829 72.7552 29.5746 70.4749 27.3488 68.2144C27.1846 68.0462 26.9009 68.1559 26.8525 68.3372C26.854 68.2071 26.8034 68.0754 26.6633 67.9657C23.4324 65.3841 19.6934 63.3876 16.2579 61.0912C16.1529 61.018 16.0412 61.0327 15.9538 61.0912C15.8613 60.9669 15.7691 60.8353 15.6761 60.7109C15.5171 60.4989 15.0538 60.5866 15.1926 60.9011C17.2145 65.4134 19.8862 70.2731 22.799 74.2632C22.991 74.5265 23.4155 74.5536 23.6509 74.3971C26.7953 75.0238 30.0879 75.7149 33.3027 75.9907C33.5344 76.2503 33.7624 76.5114 33.9955 76.7703C34.5512 77.3868 35.508 76.7812 34.887 76.1033Z" fill="#121212"/>
<path d="M50.7618 48.0003C48.7684 46.3475 46.9846 44.3949 44.9025 42.8664C44.4986 42.5665 43.6892 42.9395 44.1364 43.4368C45.5961 45.053 47.3182 46.4279 48.9319 47.9052C46.2574 48.088 43.5308 48.4318 40.9223 48.9144C40.5323 48.9803 40.7456 49.5069 41.0682 49.5069C44.209 49.5507 47.4502 49.3825 50.5682 49.0022C51.0741 48.9437 51.0844 48.2709 50.7618 48.0003Z" fill="#121212"/>
<path d="M11.5582 122.509C9.79911 122.794 7.97741 122.976 6.26157 123.451C5.71793 123.6 5.96657 124.379 6.47928 124.342C7.60829 124.262 8.73153 124.066 9.85042 123.853C6.82102 126.343 3.78209 128.819 0.84726 131.421C0.583927 131.654 1.01942 132.093 1.28039 131.899C4.98116 129.143 8.54549 126.22 12.1488 123.34C12.6059 122.974 11.9455 122.447 11.5582 122.509Z" fill="#121212"/>
<path d="M170.564 219.263C170.477 219.201 170.391 219.14 170.304 219.078C170.123 218.95 169.928 218.932 169.758 218.975C163.896 214.194 157.841 209.612 151.842 205.005C151.462 204.713 150.863 204.927 151.018 205.461C151.927 208.596 153.154 211.641 154.296 214.697C154.512 215.275 155.514 215.112 155.292 214.453C154.436 211.922 153.617 209.367 152.652 206.872C158.277 211.412 163.902 215.987 169.672 220.335C170.032 220.606 170.531 220.556 170.675 220.089C170.705 219.99 170.737 219.889 170.768 219.789C170.821 219.617 170.705 219.363 170.564 219.263Z" fill="#121212"/>
<path d="M85.8637 87.6532C85.4268 87.5771 85.3498 88.141 85.756 88.2522C90.6189 89.5839 93.7699 92.842 95.7003 97.1737C93.6996 96.6984 91.9877 95.9355 90.4121 94.4239C88.6189 92.7052 87.2868 90.558 85.9708 88.473C85.7288 88.0891 85.1145 88.3831 85.3593 88.8095C87.6519 92.8033 91.0478 98.2971 96.2472 98.5208C96.289 98.6342 96.3345 98.7446 96.3748 98.8587C96.5705 99.4086 97.6556 99.4203 97.5405 98.7234C96.6013 92.9978 91.4019 88.6288 85.8637 87.6532Z" fill="#121212"/>
<path d="M173.016 97.1956C172.713 96.1695 170.718 96.2119 170.925 97.4376C171.989 103.729 173.435 109.918 173.487 116.333C173.538 122.51 172.246 128.62 169.685 134.245C164.598 145.414 154.753 153.339 143.095 156.918C142.475 157.108 142.88 157.922 143.437 157.801C145.21 157.415 146.943 156.907 148.631 156.292C147.13 159.321 145.756 162.671 144.968 165.899C144.888 166.224 145.383 166.375 145.552 166.12C147.579 163.07 149.243 159.348 150.493 155.911C150.538 155.787 150.542 155.666 150.522 155.552C151.193 155.269 151.856 154.97 152.51 154.653C152.277 157.18 151.767 159.663 150.901 162.057C150.038 164.44 148.659 166.559 147.705 168.89C147.588 169.175 147.971 169.434 148.199 169.226C152.059 165.698 153.756 159.496 154.468 154.506C154.509 154.21 154.401 153.961 154.22 153.772C159.852 150.701 164.736 146.338 168.443 141.068C167.482 145.769 166.584 150.429 164.984 155.038C162.927 160.966 160.114 166.439 157.235 171.993C156.919 172.603 157.898 173.069 158.272 172.532C161.908 167.302 164.618 161.297 166.77 155.325C168.809 149.665 170.823 143.425 171.201 137.391C171.213 137.186 171.158 136.999 171.062 136.839C171.257 136.477 171.447 136.113 171.631 135.745C172.503 134.005 173.226 132.22 173.817 130.403C173.957 145.903 169.996 161.822 161.26 174.639C160.726 175.422 162.266 176.277 162.762 175.42C171.262 160.734 175.89 144.554 174.597 127.708C177.101 117.759 175.911 107.014 173.016 97.1956Z" fill="#121212"/>
<path d="M180.842 118.718C180.528 117.619 178.672 117.738 178.713 118.964C178.883 123.952 179.845 128.899 179.962 133.913C180.083 139.149 179.795 144.39 179.115 149.581C178.463 154.549 177.445 159.465 176.108 164.294C174.775 169.107 172.681 173.682 171.373 178.487C171.264 178.886 171.888 179.069 172.094 178.759C174.857 174.618 176.439 169.464 177.888 164.734C179.446 159.648 180.573 154.428 181.308 149.162C181.99 144.271 182.319 139.333 182.309 134.397C182.3 129.277 182.259 123.669 180.842 118.718Z" fill="#121212"/>
<path d="M185.441 136.645C184.971 140.327 185.34 144.154 185.007 147.875C184.687 151.46 184.153 155.022 183.422 158.546C182.691 162.066 181.755 165.538 180.653 168.96C179.511 172.499 177.803 175.897 176.832 179.476C176.718 179.894 177.348 180.051 177.565 179.754C181.734 174.034 183.829 165.836 185.37 159.027C186.198 155.37 186.797 151.663 187.172 147.933C187.525 144.432 188.086 140.393 187.508 136.905C187.351 135.954 185.597 135.433 185.441 136.645Z" fill="#121212"/>
<path d="M190.598 158.475C190.352 157.746 189.204 157.833 189.192 158.639C189.126 163.056 189.743 167.166 188.999 171.613C188.264 176.009 186.578 179.912 184.852 183.982C184.727 184.277 185.185 184.638 185.4 184.356C188.101 180.83 189.704 176.324 190.596 172.008C191.457 167.846 191.979 162.568 190.598 158.475Z" fill="#121212"/>
<path d="M193.334 172.298C191.455 176.795 189.983 182.148 189.525 186.996C189.497 187.305 189.97 187.546 190.134 187.228C192.344 182.93 193.972 177.591 194.788 172.848C194.915 172.112 193.656 171.529 193.334 172.298Z" fill="#121212"/>
<path d="M119.039 115.611C118.093 114.729 117.594 113.539 117.426 112.29C118.512 113.229 119.598 114.167 120.677 115.115C120.743 115.173 120.813 115.205 120.883 115.226C121.332 115.811 121.779 116.397 122.227 116.983C121.051 116.804 119.981 116.486 119.039 115.611ZM123.396 117.263L123.346 117.17C122.721 116.407 122.097 115.645 121.473 114.883C121.498 114.752 121.462 114.609 121.31 114.483C119.944 113.356 118.586 112.221 117.232 111.081C116.819 110.733 116.239 111.262 116.675 111.637L116.717 111.673C116.473 115.213 119.509 118.801 123.287 118.142C123.832 118.047 123.71 117.539 123.396 117.263Z" fill="#121212"/>
<path d="M86.3285 142.473C86.22 142.119 85.6064 141.915 85.4458 142.318L85.3806 142.502C83.2904 143.075 81.1394 143.79 79.2046 144.736C78.8102 144.928 79.2068 145.414 79.5367 145.352C81.3644 145.008 83.2098 144.444 84.9825 143.795C84.4774 145.843 84.4979 148.066 85.017 150.087C84.819 149.959 84.5734 149.912 84.3755 150.043C81.4319 151.997 78.7845 154.443 76.5103 157.15C77.7728 153.461 79.0763 149.781 80.1863 146.044C80.3439 145.513 79.3424 145.108 79.1423 145.649C77.6789 149.607 76.4363 153.644 75.1298 157.654C75.0191 157.994 75.3043 158.231 75.6181 158.274C75.4495 158.631 75.9568 159.028 76.2588 158.722C79.0602 155.882 82.0389 153.381 85.201 150.954C85.3168 150.866 85.3579 150.756 85.3615 150.643C85.5192 150.66 85.6848 150.573 85.6753 150.38C85.5477 147.917 85.7464 145.703 86.2061 143.332L86.3725 143.27C86.7662 143.113 86.6189 142.685 86.3285 142.473Z" fill="#121212"/>
<path d="M205.499 74.8816C199.595 79.1957 193.747 83.5852 187.885 87.9571C187.502 88.2423 187.968 88.8325 188.322 88.5736C194.223 84.2565 200.138 79.957 205.996 75.5829C206.431 75.2575 205.902 74.5869 205.499 74.8816Z" fill="#121212"/>
<path d="M207.709 73.3503C203.708 76.8914 200.23 81.2443 196.69 85.2447L196.498 85.2549C193.554 86.2956 190.673 87.5703 187.829 88.8553C187.443 89.0293 187.819 89.6218 188.173 89.4938C191.115 88.4333 194.08 87.3466 196.921 86.0389C197.01 85.9987 197.057 85.938 197.086 85.8707L197.153 85.8268C200.97 82.0261 205.164 78.2707 208.491 74.0334C208.877 73.5434 208.153 72.9569 207.709 73.3503Z" fill="#121212"/>
<path d="M112.526 40.8189C112.412 40.3508 111.55 40.2557 111.651 40.8115C112.025 42.8593 112.476 44.8997 113.025 46.9109C110.735 43.4005 107.817 40.0217 105.139 36.8916C105.056 36.7892 104.938 36.7599 104.834 36.7746L104.881 36.6357C105.263 32.9571 105.432 29.0225 105.314 25.2488C107.096 30.2731 108.807 35.3339 110.789 40.2777C110.977 40.7531 111.795 40.6214 111.612 40.0802C109.75 34.5148 107.542 29.059 105.478 23.574C105.432 23.4497 105.336 23.3839 105.229 23.3473C105.224 23.2449 105.221 23.1499 105.214 23.0475C105.198 22.7915 104.738 22.6964 104.694 22.9817C104.036 27.3404 103.81 32.1014 103.894 36.5113C103.9 36.855 104.339 37.0379 104.63 36.9428C104.617 37.0013 104.627 37.0671 104.677 37.1402C107.252 41.0675 110.049 45.3385 113.252 48.7831C113.587 49.1414 114.149 48.7246 113.895 48.3004L113.877 48.2711L113.913 48.1249C113.596 45.6676 113.108 43.225 112.526 40.8189Z" fill="#121212"/>
</svg>
