<svg width="308" height="80" viewBox="0 0 308 80" fill="none" xmlns="http://www.w3.org/2000/svg">
<g clip-path="url(#clip0_94_731)">
<path fill-rule="evenodd" clip-rule="evenodd" d="M31.9496 30.1338C30.789 30.1338 29.6399 30.3662 28.5677 30.8178C27.4955 31.2694 26.5213 31.9313 25.7007 32.7657C24.8801 33.6001 24.2292 34.5907 23.785 35.6809C23.4738 36.445 23.2684 37.2476 23.1734 38.0656C23.0987 38.7085 22.7533 39.3022 22.1851 39.5911L20.5047 40.4454C19.9365 40.7343 19.5638 41.328 19.6385 41.9709C19.7335 42.789 19.9389 43.5915 20.2501 44.3556C20.6943 45.4458 21.3452 46.4364 22.1658 47.2708C22.9864 48.1052 23.9607 48.7671 25.0328 49.2187C26.105 49.6703 27.2542 49.9028 28.4146 49.9028C29.5752 49.9028 30.7243 49.6703 31.7965 49.2187C32.8687 48.7671 33.8429 48.1052 34.6636 47.2708C35.4841 46.4364 36.135 45.4458 36.5792 44.3556C36.8905 43.5915 37.0958 42.789 37.1908 41.9709C37.2655 41.328 37.611 40.7343 38.1792 40.4454L39.8595 39.5911C40.4277 39.3022 40.8005 38.7085 40.7258 38.0656C40.6308 37.2476 40.4253 36.445 40.114 35.6809C39.67 34.5907 39.019 33.6001 38.1984 32.7657C37.3778 31.9313 36.4036 31.2694 35.3314 30.8178C34.2592 30.3662 33.11 30.1338 31.9496 30.1338ZM36.0318 37.4003C36.1209 37.619 36.1926 37.8439 36.2466 38.0729C36.3949 38.7024 36.009 39.3022 35.4409 39.5911L33.7605 40.4454C33.1923 40.7343 32.86 41.3341 32.7117 41.9636C32.6577 42.1927 32.586 42.4175 32.4969 42.6362C32.2748 43.1813 31.9494 43.6766 31.5391 44.0939C31.1288 44.5111 30.6417 44.842 30.1056 45.0678C29.5695 45.2936 28.9949 45.4098 28.4146 45.4098C27.8344 45.4098 27.2599 45.2936 26.7237 45.0678C26.1877 44.842 25.7006 44.5111 25.2902 44.0939C24.8799 43.6766 24.5544 43.1813 24.3324 42.6362C24.2433 42.4175 24.1717 42.1927 24.1177 41.9636C23.9694 41.3341 24.3552 40.7343 24.9233 40.4454L26.6037 39.5911C27.1719 39.3022 27.5042 38.7024 27.6525 38.0729C27.7065 37.8439 27.7783 37.619 27.8673 37.4003C28.0894 36.8552 28.4148 36.3599 28.8251 35.9427C29.2354 35.5254 29.7225 35.1946 30.2586 34.9688C30.7947 34.743 31.3693 34.6267 31.9496 34.6267C32.5298 34.6267 33.1044 34.743 33.6405 34.9688C34.1766 35.1946 34.6636 35.5254 35.074 35.9427C35.4843 36.3599 35.8098 36.8552 36.0318 37.4003Z" fill="#C5C5C5"/>
<path fill-rule="evenodd" clip-rule="evenodd" d="M31.9497 22.9453C29.8608 22.9453 27.7923 23.3637 25.8623 24.1765C23.9324 24.9894 22.1789 26.1808 20.7017 27.6827C19.2246 29.1847 18.0529 30.9678 17.2535 32.9301C16.5868 34.5667 16.19 36.3013 16.0766 38.0641C16.035 38.7102 15.6836 39.3024 15.1154 39.5913L13.435 40.4456C12.8669 40.7345 12.5002 41.3269 12.5417 41.9728C12.6551 43.7357 13.052 45.4703 13.7186 47.1068C14.518 49.0692 15.6897 50.8523 17.1668 52.3543C18.6439 53.8562 20.3975 55.0476 22.3275 55.8604C24.2573 56.6733 26.3258 57.0916 28.4147 57.0916C30.5037 57.0916 32.5721 56.6733 34.5021 55.8604C36.432 55.0476 38.1856 53.8562 39.6627 52.3543C41.1398 50.8523 42.3115 49.0692 43.1109 47.1068C43.7776 45.4703 44.1744 43.7357 44.2878 41.9728C44.3294 41.3269 44.6808 40.7345 45.249 40.4456L46.9294 39.5913C47.4976 39.3024 47.8643 38.7102 47.8228 38.0641C47.7093 36.3013 47.3125 34.5667 46.6458 32.9301C45.8464 30.9678 44.6747 29.1847 43.1976 27.6827C41.7205 26.1808 39.9669 24.9894 38.037 24.1765C36.1071 23.3637 34.0386 22.9453 31.9497 22.9453ZM39.8562 41.9722C39.9137 41.3274 40.2622 40.7345 40.8304 40.4456L42.5107 39.5913C43.079 39.3024 43.4486 38.7096 43.3911 38.0649C43.2865 36.8925 43.008 35.7408 42.5636 34.6496C41.9861 33.2322 41.14 31.9445 40.0731 30.8597C39.0064 29.775 37.7399 28.9145 36.346 28.3275C34.9522 27.7404 33.4583 27.4382 31.9497 27.4382C30.4409 27.4382 28.9471 27.7404 27.5532 28.3275C26.1594 28.9145 24.8929 29.775 23.8262 30.8597C22.7594 31.9445 21.9131 33.2322 21.3358 34.6496C20.8912 35.7408 20.6128 36.8925 20.5082 38.0649C20.4507 38.7096 20.1022 39.3024 19.534 39.5913L17.8537 40.4456C17.2855 40.7345 16.9158 41.3274 16.9733 41.9722C17.0779 43.1445 17.3563 44.2962 17.8009 45.3875C18.3782 46.8047 19.2245 48.0925 20.2913 49.1772C21.3581 50.262 22.6245 51.1224 24.0184 51.7095C25.4122 52.2966 26.9061 52.5987 28.4147 52.5987C29.9235 52.5987 31.4174 52.2966 32.8112 51.7095C34.205 51.1224 35.4715 50.262 36.5383 49.1772C37.6051 48.0925 38.4513 46.8047 39.0286 45.3875C39.4732 44.2962 39.7516 43.1445 39.8562 41.9722Z" fill="#C5C5C5"/>
<path d="M47.8521 38.7539H43.4319C43.4299 38.9836 43.2977 39.1914 43.0946 39.2946L40.2465 40.7426C40.0435 40.8458 39.9139 41.0536 39.898 41.2833H44.3181C44.3321 41.0535 44.4621 40.8458 44.6652 40.7426L47.5132 39.2946C47.7162 39.1914 47.8481 38.9837 47.8521 38.7539Z" fill="#E0E0E0"/>
<path d="M12.5124 41.2833H16.9326C16.9345 41.0536 17.0668 40.8458 17.2699 40.7426L20.1179 39.2946C20.3209 39.1914 20.4505 38.9836 20.4665 38.7539H16.0463C16.0323 38.9837 15.9023 39.1914 15.6993 39.2946L12.8512 40.7426C12.6482 40.8458 12.5163 41.0535 12.5124 41.2833Z" fill="#E0E0E0"/>
<path d="M23.1195 38.7539C23.1014 38.9836 22.9722 39.1914 22.7692 39.2946L19.9211 40.7426C19.718 40.8458 19.5853 41.0537 19.5855 41.2833H24.0115C24.002 41.0541 24.1366 40.8459 24.3397 40.7426L27.1877 39.2946C27.3909 39.1913 27.5184 38.9831 27.5454 38.7539H23.1195Z" fill="#E0E0E0"/>
<path d="M36.3533 38.7539C36.3627 38.9831 36.2282 39.1913 36.025 39.2946L33.177 40.7426C32.9738 40.8459 32.8464 41.0541 32.8193 41.2833H37.2453C37.2633 41.0537 37.3925 40.8458 37.5956 40.7426L40.4436 39.2946C40.6467 39.1914 40.7794 38.9836 40.7792 38.7539H36.3533Z" fill="#E0E0E0"/>
</g>
<path d="M86.24 31.852H84.64V46.252H86.24V51.5H74.144V46.252H75.68V40.972H71.2V46.252H72.736V51.5H60.64V46.252H62.24V31.852H60.64V26.604H72.736V31.852H71.2V36.716H75.68V31.852H74.144V26.604H86.24V31.852ZM97.307 51.948C94.2777 51.948 91.9097 51.1587 90.203 49.58C88.4963 47.98 87.643 45.6547 87.643 42.604C87.643 39.5533 88.4963 37.2387 90.203 35.66C91.9097 34.06 94.2777 33.26 97.307 33.26C100.379 33.26 102.758 34.0707 104.443 35.692C106.128 37.292 106.971 39.596 106.971 42.604C106.971 45.6547 106.118 47.98 104.411 49.58C102.704 51.1587 100.336 51.948 97.307 51.948ZM97.307 46.252C97.9257 46.252 98.3843 46.092 98.683 45.772C99.003 45.4307 99.163 44.908 99.163 44.204V41.004C99.163 40.3 99.003 39.788 98.683 39.468C98.3843 39.1267 97.9257 38.956 97.307 38.956C96.6883 38.956 96.219 39.1267 95.899 39.468C95.6003 39.788 95.451 40.3 95.451 41.004V44.204C95.451 44.908 95.6003 45.4307 95.899 45.772C96.219 46.092 96.6883 46.252 97.307 46.252ZM108.31 51.532V46.252H109.718V31.852H108.31V26.604H117.078V46.252H118.486V51.532H108.31ZM121.353 31.948V26.604H127.881V31.948H121.353ZM119.817 51.5V46.252H121.225V38.956H119.817V33.708H128.585V46.252H129.993V51.5H119.817ZM140.768 51.948C137.717 51.948 135.338 51.1587 133.632 49.58C131.925 47.98 131.072 45.6547 131.072 42.604C131.072 39.5533 131.925 37.2387 133.632 35.66C135.338 34.06 137.706 33.26 140.736 33.26C142.208 33.26 143.616 33.4627 144.96 33.868C146.304 34.2733 147.349 34.732 148.096 35.244V41.58H142.592V41.004C142.592 40.3 142.442 39.788 142.144 39.468C141.845 39.1267 141.376 38.956 140.736 38.956C139.498 38.956 138.88 39.6387 138.88 41.004V43.756C138.88 45.42 139.829 46.252 141.728 46.252C143.498 46.252 145.557 46.06 147.904 45.676V50.7C147.178 51.02 146.154 51.308 144.832 51.564C143.53 51.82 142.176 51.948 140.768 51.948ZM159.024 51.948C155.995 51.948 153.627 51.1587 151.92 49.58C150.214 47.98 149.36 45.6547 149.36 42.604C149.36 39.5533 150.214 37.2387 151.92 35.66C153.627 34.06 155.995 33.26 159.024 33.26C162.096 33.26 164.475 34.0707 166.16 35.692C167.846 37.292 168.688 39.596 168.688 42.604C168.688 45.6547 167.835 47.98 166.128 49.58C164.422 51.1587 162.054 51.948 159.024 51.948ZM159.024 46.252C159.643 46.252 160.102 46.092 160.4 45.772C160.72 45.4307 160.88 44.908 160.88 44.204V41.004C160.88 40.3 160.72 39.788 160.4 39.468C160.102 39.1267 159.643 38.956 159.024 38.956C158.406 38.956 157.936 39.1267 157.616 39.468C157.318 39.788 157.168 40.3 157.168 41.004V44.204C157.168 44.908 157.318 45.4307 157.616 45.772C157.936 46.092 158.406 46.252 159.024 46.252ZM189.925 51.948C187.877 51.948 185.936 51.7773 184.101 51.436C182.288 51.0733 180.89 50.668 179.909 50.22V43.884H186.949C186.949 44.5453 187.098 45.0253 187.397 45.324C187.696 45.6227 188.24 45.772 189.029 45.772C189.69 45.772 190.16 45.676 190.437 45.484C190.736 45.2707 190.885 44.9613 190.885 44.556C190.885 44.2147 190.746 43.9267 190.469 43.692C190.192 43.436 189.712 43.18 189.029 42.924L186.277 41.964C183.909 41.068 182.202 40.012 181.157 38.796C180.133 37.58 179.621 35.9373 179.621 33.868C179.621 31.3507 180.442 29.4413 182.085 28.14C183.749 26.8173 186.512 26.156 190.373 26.156C192.229 26.156 193.968 26.348 195.589 26.732C197.232 27.0947 198.554 27.5853 199.557 28.204V33.932H193.157C193.157 32.8653 192.496 32.332 191.173 32.332C190.533 32.332 190.074 32.4173 189.797 32.588C189.541 32.7373 189.413 33.0147 189.413 33.42C189.413 33.7827 189.562 34.0707 189.861 34.284C190.181 34.4973 190.693 34.7213 191.397 34.956L194.181 35.916C196.442 36.684 198.085 37.6867 199.109 38.924C200.154 40.14 200.677 41.74 200.677 43.724C200.677 46.4333 199.76 48.4813 197.925 49.868C196.112 51.2547 193.445 51.948 189.925 51.948ZM211.359 51.948C208.33 51.948 205.962 51.1587 204.255 49.58C202.549 47.98 201.695 45.6547 201.695 42.604C201.695 39.5533 202.549 37.2387 204.255 35.66C205.962 34.06 208.33 33.26 211.359 33.26C214.367 33.26 216.533 34.0493 217.855 35.628C219.199 37.1853 219.871 39.1267 219.871 41.452V43.756H209.503V43.948C209.503 44.7373 209.738 45.324 210.207 45.708C210.677 46.0707 211.455 46.252 212.543 46.252C213.845 46.252 215.082 46.156 216.255 45.964C217.429 45.772 218.453 45.5267 219.327 45.228V50.348C218.581 50.7533 217.482 51.1267 216.031 51.468C214.602 51.788 213.045 51.948 211.359 51.948ZM213.215 40.236V39.852C213.215 39.1267 213.055 38.604 212.735 38.284C212.437 37.964 211.978 37.804 211.359 37.804C210.741 37.804 210.271 37.9747 209.951 38.316C209.653 38.636 209.503 39.148 209.503 39.852V40.236H213.215ZM253.464 46.252V51.5H243.352V46.252H244.696V41.004C244.696 40.3 244.546 39.788 244.248 39.468C243.949 39.1267 243.501 38.956 242.904 38.956C241.624 38.956 240.984 39.6387 240.984 41.004V46.252H242.328V51.5H232.28V46.252H233.624V41.004C233.624 40.3 233.474 39.788 233.176 39.468C232.877 39.1267 232.429 38.956 231.832 38.956C230.552 38.956 229.912 39.6387 229.912 41.004V46.252H231.256V51.5H221.144V46.252H222.552V38.956H221.144V33.708H229.912V36.204C231.448 34.2413 233.368 33.26 235.672 33.26C236.973 33.26 238.029 33.5693 238.84 34.188C239.672 34.7853 240.258 35.6387 240.6 36.748C241.368 35.6387 242.242 34.7853 243.224 34.188C244.226 33.5907 245.4 33.292 246.744 33.292C248.514 33.292 249.837 33.8467 250.712 34.956C251.608 36.0653 252.056 37.5907 252.056 39.532V46.252H253.464ZM264.343 51.948C261.314 51.948 258.946 51.1587 257.239 49.58C255.533 47.98 254.679 45.6547 254.679 42.604C254.679 39.5533 255.533 37.2387 257.239 35.66C258.946 34.06 261.314 33.26 264.343 33.26C267.351 33.26 269.517 34.0493 270.839 35.628C272.183 37.1853 272.855 39.1267 272.855 41.452V43.756H262.487V43.948C262.487 44.7373 262.722 45.324 263.191 45.708C263.661 46.0707 264.439 46.252 265.527 46.252C266.829 46.252 268.066 46.156 269.239 45.964C270.413 45.772 271.437 45.5267 272.311 45.228V50.348C271.565 50.7533 270.466 51.1267 269.015 51.468C267.586 51.788 266.029 51.948 264.343 51.948ZM266.199 40.236V39.852C266.199 39.1267 266.039 38.604 265.719 38.284C265.421 37.964 264.962 37.804 264.343 37.804C263.725 37.804 263.255 37.9747 262.935 38.316C262.637 38.636 262.487 39.148 262.487 39.852V40.236H266.199ZM295.375 46.252V51.5H285.263V46.252H286.607V41.004C286.607 40.3 286.458 39.788 286.159 39.468C285.861 39.1267 285.413 38.956 284.815 38.956C283.535 38.956 282.895 39.6387 282.895 41.004V46.252H284.239V51.5H274.127V46.252H275.535V38.956H274.127V33.708H282.895V36.204C284.431 34.2413 286.351 33.26 288.655 33.26C290.426 33.26 291.749 33.8147 292.623 34.924C293.519 36.0333 293.967 37.5587 293.967 39.5V46.252H295.375Z" fill="#C5C5C5"/>
<defs>
<clipPath id="clip0_94_731">
<rect width="36" height="35" fill="white" transform="translate(12 22.5)"/>
</clipPath>
</defs>
</svg>
