<svg width="215" height="80" viewBox="0 0 215 80" fill="none" xmlns="http://www.w3.org/2000/svg">
<path d="M32.3222 50.9002C32.3545 47.5959 31.5168 44.9089 30.4512 44.8985C29.3855 44.8881 28.4954 47.5583 28.4632 50.8625C28.4309 54.1668 29.2686 56.8539 30.3342 56.8643C31.3998 56.8747 32.2899 54.2045 32.3222 50.9002Z" fill="#C5C5C5"/>
<path d="M26.1418 50.15C27.9556 47.3878 28.7037 44.6744 27.8129 44.0895C26.9221 43.5046 24.7296 45.2696 22.9159 48.0318C21.1022 50.794 20.354 53.5073 21.2448 54.0923C22.1356 54.6772 24.328 52.9122 26.1418 50.15Z" fill="#C5C5C5"/>
<path d="M21.341 46.1868C24.3602 44.8438 26.4567 42.9658 26.0235 41.992C25.5904 41.0183 22.7918 41.3177 19.7725 42.6607C16.7533 44.0036 14.6569 45.8817 15.09 46.8554C15.5231 47.8291 18.3218 47.5298 21.341 46.1868Z" fill="#C5C5C5"/>
<path d="M25.6612 39.2612C25.8233 38.2079 23.3071 36.9466 20.0412 36.4439C16.7752 35.9412 13.9962 36.3876 13.8341 37.4408C13.672 38.4941 16.1881 39.7554 19.4541 40.2581C22.72 40.7608 25.4991 40.3144 25.6612 39.2612Z" fill="#C5C5C5"/>
<path d="M26.8338 36.7524C27.5395 35.954 26.1044 33.5327 23.6284 31.3444C21.1524 29.1561 18.5731 28.0295 17.8674 28.828C17.1616 29.6265 18.5967 32.0478 21.0728 34.2361C23.5488 36.4244 26.1281 37.551 26.8338 36.7524Z" fill="#C5C5C5"/>
<path d="M29.169 35.2857C30.1945 34.9955 30.2963 32.1827 29.3966 29.0031C28.4969 25.8235 26.9363 23.4812 25.9108 23.7714C24.8854 24.0615 24.7835 26.8743 25.6832 30.0539C26.5829 33.2334 28.1436 35.5758 29.169 35.2857Z" fill="#C5C5C5"/>
<path d="M35.51 30.1536C36.4723 26.9924 36.426 24.1781 35.4064 23.8678C34.3869 23.5574 32.7804 25.8685 31.8181 29.0298C30.8559 32.191 30.9023 35.0052 31.9218 35.3156C32.9413 35.6259 34.5478 33.3148 35.51 30.1536Z" fill="#C5C5C5"/>
<path d="M40.041 34.4248C42.5593 32.2853 44.0415 29.8926 43.3515 29.0804C42.6615 28.2683 40.0606 29.3443 37.5424 31.4837C35.024 33.6232 33.5419 36.0159 34.2319 36.8281C34.9218 37.6403 37.5227 36.5643 40.041 34.4248Z" fill="#C5C5C5"/>
<path d="M41.5392 40.469C44.8144 40.0308 47.355 38.8194 47.2136 37.7631C47.0724 36.7068 44.3027 36.2058 41.0274 36.6439C37.7522 37.0821 35.2116 38.2936 35.3529 39.3499C35.4942 40.4061 38.2639 40.9072 41.5392 40.469Z" fill="#C5C5C5"/>
<path d="M45.7642 47.1575C46.2165 46.1926 44.1575 44.2736 41.1653 42.8713C38.1732 41.469 35.381 41.1146 34.9287 42.0795C34.4765 43.0445 36.5355 44.9635 39.5277 46.3658C42.5198 47.768 45.312 48.1225 45.7642 47.1575Z" fill="#C5C5C5"/>
<path d="M39.4704 54.2774C40.3725 53.7102 39.678 50.9825 37.9191 48.1851C36.1602 45.3877 34.003 43.5798 33.1008 44.1471C32.1987 44.7143 32.8932 47.4419 34.6521 50.2393C36.4109 53.0368 38.5682 54.8447 39.4704 54.2774Z" fill="#C5C5C5"/>
<path d="M85.62 49.66L83.22 51.132C80.1693 52.924 76.9267 53.82 73.492 53.82C71.2307 53.82 69.1827 53.2653 67.348 52.156C65.5133 51.0467 64.0733 49.532 63.028 47.612C61.9827 45.692 61.46 43.5693 61.46 41.244C61.46 38.812 62.036 36.6573 63.188 34.78C64.34 32.8813 65.8867 31.4093 67.828 30.364C69.7907 29.3187 71.9347 28.796 74.26 28.796C75.9453 28.796 77.46 29.084 78.804 29.66C80.1693 30.2147 81.5133 31.004 82.836 32.028C82.8573 32.0493 82.9 32.06 82.964 32.06C83.0707 32.06 83.1987 32.0173 83.348 31.932C83.5187 31.8253 83.6467 31.7293 83.732 31.644L84.148 32.092L79.892 36.316L79.444 35.9C79.572 35.772 79.668 35.6333 79.732 35.484C79.8173 35.3133 79.8173 35.1853 79.732 35.1C78.004 33.5853 76.1907 32.828 74.292 32.828C72.7987 32.828 71.412 33.1693 70.132 33.852C68.852 34.5347 67.828 35.516 67.06 36.796C66.3133 38.0547 65.94 39.5373 65.94 41.244C65.94 42.8013 66.26 44.22 66.9 45.5C67.54 46.7587 68.436 47.7613 69.588 48.508C70.74 49.2547 72.052 49.628 73.524 49.628C76.02 49.628 78.196 49.0413 80.052 47.868V43.196H74.26C74.1533 43.196 74.068 43.2707 74.004 43.42C73.94 43.5693 73.908 43.7187 73.908 43.868H73.3V38.748H73.908C73.908 38.8973 73.94 39.0467 74.004 39.196C74.068 39.3453 74.1533 39.42 74.26 39.42H84.884V40.028C84.7347 40.028 84.5747 40.06 84.404 40.124C84.2547 40.188 84.18 40.2733 84.18 40.38V49.276C84.18 49.3827 84.2653 49.436 84.436 49.436C84.692 49.436 84.98 49.34 85.3 49.148L85.62 49.66ZM87.178 30.46C87.178 30.3533 87.0927 30.268 86.922 30.204C86.7727 30.14 86.6127 30.108 86.442 30.108V29.5H92.074V30.108C91.9033 30.108 91.7327 30.14 91.562 30.204C91.4127 30.268 91.338 30.3533 91.338 30.46V52.54C91.338 52.6467 91.4127 52.732 91.562 52.796C91.7327 52.86 91.9033 52.892 92.074 52.892V53.5H86.442V52.892C86.6127 52.892 86.7727 52.86 86.922 52.796C87.0927 52.732 87.178 52.6467 87.178 52.54V30.46ZM111.037 39.388C110.887 39.388 110.727 39.42 110.557 39.484C110.407 39.548 110.333 39.6333 110.333 39.74V52.54C110.333 52.6467 110.407 52.732 110.557 52.796C110.727 52.86 110.887 52.892 111.037 52.892V53.5H106.301V51.74C104.957 53.1907 103.261 53.916 101.213 53.916C99.6552 53.916 98.2792 53.6067 97.0845 52.988C95.9112 52.348 94.9938 51.4413 94.3325 50.268C93.6925 49.0947 93.3725 47.7293 93.3725 46.172C93.3725 44.6573 93.7245 43.3133 94.4285 42.14C95.1538 40.9453 96.1138 40.028 97.3085 39.388C98.5032 38.7267 99.8045 38.396 101.213 38.396C103.261 38.396 104.957 39.1853 106.301 40.764V38.78H111.037V39.388ZM101.693 50.524C102.567 50.524 103.346 50.332 104.029 49.948C104.733 49.5427 105.277 49.02 105.661 48.38C106.045 47.7187 106.237 47.0147 106.237 46.268C106.237 44.988 105.81 43.932 104.957 43.1C104.125 42.268 103.037 41.852 101.693 41.852C100.391 41.852 99.3138 42.2573 98.4605 43.068C97.6285 43.8787 97.2125 44.9133 97.2125 46.172C97.2125 47.4947 97.6392 48.5507 98.4925 49.34C99.3672 50.1293 100.434 50.524 101.693 50.524ZM118.903 53.98C117.815 53.98 116.759 53.756 115.734 53.308C114.732 52.86 113.718 52.22 112.694 51.388C112.652 51.3453 112.598 51.324 112.534 51.324C112.364 51.324 112.182 51.42 111.99 51.612L111.542 51.228L114.743 47.58L115.191 47.996C115.105 48.1027 115.031 48.2307 114.967 48.38C114.924 48.5293 114.945 48.6467 115.03 48.732C115.735 49.372 116.385 49.852 116.983 50.172C117.601 50.4707 118.241 50.62 118.903 50.62C120.545 50.62 121.366 50.076 121.366 48.988C121.366 48.4973 121.111 48.124 120.599 47.868C120.108 47.5907 119.276 47.292 118.102 46.972C116.588 46.5667 115.489 46.044 114.806 45.404C114.124 44.7427 113.783 43.8467 113.783 42.716C113.783 41.372 114.22 40.284 115.095 39.452C115.969 38.5987 117.164 38.172 118.679 38.172C119.447 38.172 120.14 38.2893 120.759 38.524C121.377 38.7587 122.124 39.1747 122.999 39.772C123.02 39.7933 123.063 39.804 123.127 39.804C123.233 39.804 123.34 39.772 123.447 39.708C123.553 39.644 123.628 39.58 123.671 39.516L124.151 39.932L121.271 43.196L120.823 42.812C120.908 42.7267 120.961 42.62 120.983 42.492C121.025 42.3427 121.004 42.2253 120.918 42.14C120.535 41.8413 120.161 41.6173 119.799 41.468C119.457 41.3187 119.073 41.244 118.647 41.244C118.199 41.244 117.847 41.3293 117.591 41.5C117.335 41.6707 117.207 41.9267 117.207 42.268C117.207 42.5453 117.281 42.7693 117.431 42.94C117.58 43.1107 117.847 43.2813 118.231 43.452C118.636 43.6227 119.244 43.836 120.055 44.092C121.548 44.54 122.721 45.1693 123.575 45.98C124.428 46.7693 124.855 47.7507 124.855 48.924C124.855 50.652 124.311 51.932 123.223 52.764C122.135 53.5747 120.694 53.98 118.903 53.98ZM132.06 53.98C130.972 53.98 129.916 53.756 128.892 53.308C127.889 52.86 126.876 52.22 125.852 51.388C125.809 51.3453 125.756 51.324 125.692 51.324C125.521 51.324 125.34 51.42 125.148 51.612L124.7 51.228L127.9 47.58L128.348 47.996C128.263 48.1027 128.188 48.2307 128.124 48.38C128.081 48.5293 128.103 48.6467 128.188 48.732C128.892 49.372 129.543 49.852 130.14 50.172C130.759 50.4707 131.399 50.62 132.06 50.62C133.703 50.62 134.524 50.076 134.524 48.988C134.524 48.4973 134.268 48.124 133.756 47.868C133.265 47.5907 132.433 47.292 131.26 46.972C129.745 46.5667 128.647 46.044 127.964 45.404C127.281 44.7427 126.94 43.8467 126.94 42.716C126.94 41.372 127.377 40.284 128.252 39.452C129.127 38.5987 130.321 38.172 131.836 38.172C132.604 38.172 133.297 38.2893 133.916 38.524C134.535 38.7587 135.281 39.1747 136.156 39.772C136.177 39.7933 136.22 39.804 136.284 39.804C136.391 39.804 136.497 39.772 136.604 39.708C136.711 39.644 136.785 39.58 136.828 39.516L137.308 39.932L134.428 43.196L133.98 42.812C134.065 42.7267 134.119 42.62 134.14 42.492C134.183 42.3427 134.161 42.2253 134.076 42.14C133.692 41.8413 133.319 41.6173 132.956 41.468C132.615 41.3187 132.231 41.244 131.804 41.244C131.356 41.244 131.004 41.3293 130.748 41.5C130.492 41.6707 130.364 41.9267 130.364 42.268C130.364 42.5453 130.439 42.7693 130.588 42.94C130.737 43.1107 131.004 43.2813 131.388 43.452C131.793 43.6227 132.401 43.836 133.212 44.092C134.705 44.54 135.879 45.1693 136.732 45.98C137.585 46.7693 138.012 47.7507 138.012 48.924C138.012 50.652 137.468 51.932 136.38 52.764C135.292 53.5747 133.852 53.98 132.06 53.98ZM155.297 52.54C155.297 52.6467 155.372 52.732 155.521 52.796C155.692 52.86 155.852 52.892 156.001 52.892V53.5H151.425V52.38C150.145 53.4253 148.62 53.948 146.849 53.948C145.271 53.948 143.863 53.628 142.625 52.988C141.388 52.348 140.417 51.4413 139.713 50.268C139.009 49.0947 138.657 47.74 138.657 46.204C138.657 44.6467 139.009 43.2707 139.713 42.076C140.439 40.86 141.42 39.9213 142.657 39.26C143.916 38.5773 145.313 38.236 146.849 38.236C148.62 38.236 150.145 38.7373 151.425 39.74V30.46C151.425 30.3533 151.351 30.268 151.201 30.204C151.052 30.14 150.903 30.108 150.753 30.108V29.5H155.969V30.108C155.82 30.108 155.671 30.14 155.521 30.204C155.372 30.268 155.297 30.3533 155.297 30.46V52.54ZM147.041 50.524C147.873 50.524 148.631 50.332 149.313 49.948C150.017 49.564 150.561 49.052 150.945 48.412C151.351 47.7507 151.553 47.0573 151.553 46.332C151.553 45.0307 151.127 43.964 150.273 43.132C149.441 42.2787 148.364 41.852 147.041 41.852C145.719 41.852 144.631 42.268 143.777 43.1C142.945 43.9107 142.529 44.9667 142.529 46.268C142.529 47.5693 142.956 48.604 143.809 49.372C144.684 50.14 145.761 50.524 147.041 50.524ZM165.44 53.884C163.861 53.884 162.464 53.5533 161.248 52.892C160.053 52.2093 159.115 51.2813 158.432 50.108C157.771 48.9347 157.44 47.612 157.44 46.14C157.44 44.6893 157.771 43.3667 158.432 42.172C159.115 40.9773 160.064 40.0387 161.28 39.356C162.496 38.652 163.883 38.3 165.44 38.3C166.933 38.3 168.288 38.6413 169.504 39.324C170.72 39.9853 171.68 40.9133 172.384 42.108C173.088 43.2813 173.44 44.6253 173.44 46.14C173.44 47.4627 173.12 48.7213 172.48 49.916C171.861 51.0893 170.944 52.0493 169.728 52.796C168.512 53.5213 167.083 53.884 165.44 53.884ZM165.44 50.204C166.699 50.204 167.712 49.8413 168.48 49.116C169.269 48.3693 169.664 47.4093 169.664 46.236C169.664 45.02 169.269 44.0173 168.48 43.228C167.712 42.4387 166.699 42.044 165.44 42.044C164.267 42.044 163.285 42.4387 162.496 43.228C161.707 43.996 161.312 44.9667 161.312 46.14C161.312 47.3773 161.707 48.3693 162.496 49.116C163.285 49.8413 164.267 50.204 165.44 50.204ZM182.218 38.108C183.861 38.108 185.279 38.4707 186.474 39.196C187.669 39.9 188.575 40.86 189.194 42.076C189.813 43.292 190.122 44.636 190.122 46.108C190.122 46.556 190.09 47.004 190.026 47.452H178.314C178.399 48.476 178.847 49.276 179.658 49.852C180.469 50.428 181.439 50.716 182.57 50.716C183.338 50.716 183.978 50.6093 184.49 50.396C185.023 50.1827 185.493 49.8627 185.898 49.436C185.941 49.3507 185.962 49.2973 185.962 49.276C185.962 49.1907 185.93 49.1053 185.866 49.02C185.802 48.9133 185.738 48.8387 185.674 48.796L186.058 48.316L189.61 51.1L189.258 51.58C188.938 51.388 188.714 51.3667 188.586 51.516C187.093 53.308 185.087 54.204 182.57 54.204C180.949 54.204 179.519 53.852 178.282 53.148C177.045 52.4227 176.085 51.4627 175.402 50.268C174.741 49.052 174.41 47.708 174.41 46.236C174.41 44.6787 174.741 43.2813 175.402 42.044C176.063 40.8067 176.981 39.8467 178.154 39.164C179.349 38.46 180.703 38.108 182.218 38.108ZM186.282 44.476C186.197 43.6013 185.749 42.8653 184.938 42.268C184.149 41.6493 183.253 41.34 182.25 41.34C181.247 41.34 180.383 41.6493 179.658 42.268C178.933 42.8653 178.495 43.6013 178.346 44.476H186.282ZM201.119 37.82V42.972H200.511C200.511 42.8227 200.479 42.652 200.415 42.46C200.351 42.268 200.266 42.1613 200.159 42.14H199.935C199.274 42.14 198.602 42.332 197.919 42.716C197.258 43.0787 196.703 43.5693 196.255 44.188C195.829 44.7853 195.615 45.4253 195.615 46.108V52.54C195.615 52.6467 195.69 52.732 195.839 52.796C196.01 52.86 196.17 52.892 196.319 52.892V53.5H190.943V52.892C191.093 52.892 191.242 52.86 191.391 52.796C191.562 52.732 191.647 52.6467 191.647 52.54V39.74C191.647 39.6333 191.562 39.548 191.391 39.484C191.242 39.42 191.093 39.388 190.943 39.388V38.78H195.615V40.156C196.191 39.6227 196.885 39.196 197.695 38.876C198.506 38.556 199.317 38.396 200.127 38.396H200.159H200.191C200.298 38.396 200.373 38.332 200.415 38.204C200.479 38.076 200.511 37.948 200.511 37.82H201.119Z" fill="#C5C5C5"/>
</svg>
