<svg width="214" height="80" viewBox="0 0 214 80" fill="none" xmlns="http://www.w3.org/2000/svg">
<g clip-path="url(#clip0_94_719)">
<path d="M12 49.1L15.2042 43.5H20.5181C24.0048 43.5 26.9528 46.0972 27.4136 49.5749L28 54H21.0435L20.0407 51.6456C19.383 50.1013 17.8739 49.1 16.2043 49.1H12Z" fill="#C5C5C5"/>
<path d="M44 49.1L40.7958 43.5H35.4819C31.9952 43.5 29.0472 46.0972 28.5864 49.5749L28 54H34.9565L35.9593 51.6456C36.617 50.1013 38.1261 49.1 39.7958 49.1H44Z" fill="#C5C5C5"/>
<path d="M15.2041 43.5L25.2172 26H27.9999L27.7239 32.6668C27.4857 38.4184 22.9533 43.0517 17.2419 43.3821L15.2041 43.5Z" fill="#C5C5C5"/>
<path d="M40.7958 43.5L30.7827 26H28L28.276 32.6668C28.5142 38.4184 33.0466 43.0517 38.758 43.3821L40.7958 43.5Z" fill="#C5C5C5"/>
</g>
<path d="M76.48 51.116V51.212H71.04C70.8907 50.7 70.7093 50.1133 70.496 49.452C70.304 48.7907 70.0907 48.0867 69.856 47.34H62.944C62.5173 48.8333 62.1227 50.124 61.76 51.212H56.32V51.148L62.88 30.956H69.92L76.48 51.116ZM66.336 34.604C66.1227 35.692 65.8133 37.0147 65.408 38.572C65.0027 40.1293 64.576 41.7187 64.128 43.34H68.704C68.2347 41.7187 67.7973 40.1293 67.392 38.572C66.9867 37.0147 66.6773 35.692 66.464 34.604H66.336ZM82.5725 51.212H77.4525V35.628H81.6125L82.0285 38.828H82.1245C82.3165 37.6333 82.7752 36.78 83.5005 36.268C84.2258 35.7347 85.3032 35.468 86.7325 35.468C87.3085 35.468 87.8312 35.5 88.3005 35.564C88.7698 35.6067 89.1645 35.6493 89.4845 35.692V40.684L89.4205 40.748C89.0792 40.6627 88.6845 40.588 88.2365 40.524C87.8098 40.46 87.3192 40.428 86.7645 40.428C85.9752 40.428 85.2605 40.556 84.6205 40.812C84.0018 41.068 83.5112 41.5693 83.1485 42.316C82.8072 43.0413 82.6365 44.1293 82.6365 45.58L82.5725 51.212ZM90.7737 46.54V39.82H88.8537V35.66H91.2537L92.2137 31.852H95.8937V35.66H99.3817V39.82H95.8937V45.42C95.8937 46.0173 95.9684 46.4333 96.1177 46.668C96.2671 46.8813 96.6084 46.988 97.1417 46.988C97.4831 46.988 97.8457 46.9773 98.2297 46.956C98.6137 46.9133 98.9977 46.8707 99.3817 46.828L99.4777 46.892V51.052C98.4537 51.3507 97.0991 51.5 95.4137 51.5C93.7284 51.5 92.5337 51.116 91.8297 50.348C91.1257 49.58 90.7737 48.3107 90.7737 46.54ZM105.912 29.836C105.976 30.604 106.008 31.244 106.008 31.756C106.008 32.0547 105.997 32.364 105.976 32.684C105.976 32.9827 105.955 33.324 105.912 33.708C105.464 33.7933 105.027 33.8573 104.6 33.9C104.173 33.9427 103.747 33.964 103.32 33.964C102.915 33.964 102.499 33.9427 102.072 33.9C101.667 33.8573 101.251 33.7933 100.824 33.708C100.781 33.3453 100.749 33.0147 100.728 32.716C100.707 32.396 100.696 32.0867 100.696 31.788C100.696 31.5107 100.707 31.212 100.728 30.892C100.749 30.572 100.781 30.22 100.824 29.836C101.251 29.7293 101.677 29.6653 102.104 29.644C102.552 29.6013 102.989 29.58 103.416 29.58C103.821 29.58 104.227 29.6013 104.632 29.644C105.059 29.6653 105.485 29.7293 105.912 29.836ZM105.912 51.212H100.792V35.628H105.912V51.212ZM113.295 51.212H108.175V35.628H113.039L113.295 38.476H113.391C113.69 37.516 114.223 36.78 114.991 36.268C115.759 35.7347 116.826 35.468 118.191 35.468C120.047 35.468 121.412 35.9907 122.287 37.036C123.183 38.0813 123.631 39.8947 123.631 42.476V51.212H118.511L118.479 43.468C118.479 42.2733 118.298 41.42 117.935 40.908C117.572 40.396 116.89 40.14 115.887 40.14C114.948 40.14 114.287 40.3747 113.903 40.844C113.519 41.292 113.316 42.0707 113.295 43.18V51.212ZM126.184 46.54V39.82H124.264V35.66H126.664L127.624 31.852H131.304V35.66H134.792V39.82H131.304V45.42C131.304 46.0173 131.378 46.4333 131.528 46.668C131.677 46.8813 132.018 46.988 132.552 46.988C132.893 46.988 133.256 46.9773 133.64 46.956C134.024 46.9133 134.408 46.8707 134.792 46.828L134.888 46.892V51.052C133.864 51.3507 132.509 51.5 130.824 51.5C129.138 51.5 127.944 51.116 127.24 50.348C126.536 49.58 126.184 48.3107 126.184 46.54ZM150.218 50.7C149.621 50.9133 148.789 51.1053 147.722 51.276C146.677 51.4253 145.429 51.5 143.978 51.5C142.143 51.5 140.575 51.2653 139.274 50.796C137.994 50.3053 137.023 49.484 136.362 48.332C135.701 47.1587 135.37 45.5373 135.37 43.468C135.37 40.652 136.01 38.6147 137.29 37.356C138.591 36.0973 140.597 35.468 143.306 35.468C145.247 35.468 146.773 35.7453 147.882 36.3C149.013 36.8547 149.813 37.644 150.282 38.668C150.773 39.6707 151.018 40.8653 151.018 42.252C151.018 42.6573 150.997 43.0947 150.954 43.564C150.933 44.0333 150.879 44.492 150.794 44.94L150.666 45.068H140.138C140.287 46.0067 140.725 46.6253 141.45 46.924C142.197 47.2227 143.402 47.372 145.066 47.372C146.175 47.372 147.093 47.3507 147.818 47.308C148.565 47.244 149.322 47.1587 150.09 47.052L150.218 47.148V50.7ZM146.57 41.708C146.57 41.196 146.485 40.7587 146.314 40.396C146.165 40.012 145.855 39.724 145.386 39.532C144.917 39.3187 144.223 39.212 143.306 39.212C141.962 39.212 141.077 39.4467 140.65 39.916C140.245 40.364 140.042 40.9613 140.042 41.708H146.57ZM157.58 51.212H152.46V35.628H156.62L157.036 38.828H157.132C157.324 37.6333 157.783 36.78 158.508 36.268C159.233 35.7347 160.311 35.468 161.74 35.468C162.316 35.468 162.839 35.5 163.308 35.564C163.777 35.6067 164.172 35.6493 164.492 35.692V40.684L164.428 40.748C164.087 40.6627 163.692 40.588 163.244 40.524C162.817 40.46 162.327 40.428 161.772 40.428C160.983 40.428 160.268 40.556 159.628 40.812C159.009 41.068 158.519 41.5693 158.156 42.316C157.815 43.0413 157.644 44.1293 157.644 45.58L157.58 51.212ZM170.293 29.836C170.357 30.604 170.389 31.244 170.389 31.756C170.389 32.0547 170.379 32.364 170.357 32.684C170.357 32.9827 170.336 33.324 170.293 33.708C169.845 33.7933 169.408 33.8573 168.981 33.9C168.555 33.9427 168.128 33.964 167.701 33.964C167.296 33.964 166.88 33.9427 166.453 33.9C166.048 33.8573 165.632 33.7933 165.205 33.708C165.163 33.3453 165.131 33.0147 165.109 32.716C165.088 32.396 165.077 32.0867 165.077 31.788C165.077 31.5107 165.088 31.212 165.109 30.892C165.131 30.572 165.163 30.22 165.205 29.836C165.632 29.7293 166.059 29.6653 166.485 29.644C166.933 29.6013 167.371 29.58 167.797 29.58C168.203 29.58 168.608 29.6013 169.013 29.644C169.44 29.6653 169.867 29.7293 170.293 29.836ZM170.293 51.212H165.173V35.628H170.293V51.212ZM171.436 43.532C171.436 40.6733 172.044 38.6147 173.26 37.356C174.476 36.0973 176.535 35.468 179.436 35.468C181.378 35.468 182.935 35.7453 184.108 36.3C185.282 36.8547 186.124 37.7293 186.636 38.924C187.17 40.0973 187.436 41.6333 187.436 43.532C187.436 45.4093 187.17 46.9347 186.636 48.108C186.124 49.2813 185.282 50.1453 184.108 50.7C182.935 51.2333 181.378 51.5 179.436 51.5C176.535 51.5 174.476 50.8813 173.26 49.644C172.044 48.3853 171.436 46.348 171.436 43.532ZM179.436 47.116C180.674 47.116 181.506 46.8493 181.932 46.316C182.38 45.7613 182.604 44.8013 182.604 43.436C182.604 42.1347 182.38 41.2067 181.932 40.652C181.506 40.076 180.674 39.788 179.436 39.788C178.242 39.788 177.41 40.076 176.94 40.652C176.492 41.2067 176.268 42.1347 176.268 43.436C176.268 44.8013 176.492 45.7613 176.94 46.316C177.41 46.8493 178.242 47.116 179.436 47.116ZM193.99 51.212H188.87V35.628H193.03L193.446 38.828H193.542C193.734 37.6333 194.193 36.78 194.918 36.268C195.643 35.7347 196.721 35.468 198.15 35.468C198.726 35.468 199.249 35.5 199.718 35.564C200.187 35.6067 200.582 35.6493 200.902 35.692V40.684L200.838 40.748C200.497 40.6627 200.102 40.588 199.654 40.524C199.227 40.46 198.737 40.428 198.182 40.428C197.393 40.428 196.678 40.556 196.038 40.812C195.419 41.068 194.929 41.5693 194.566 42.316C194.225 43.0413 194.054 44.1293 194.054 45.58L193.99 51.212Z" fill="#C5C5C5"/>
<defs>
<clipPath id="clip0_94_719">
<rect width="32" height="28" fill="white" transform="translate(12 26)"/>
</clipPath>
</defs>
</svg>
