<svg width="189" height="80" viewBox="0 0 189 80" fill="none" xmlns="http://www.w3.org/2000/svg">
<g clip-path="url(#clip0_94_726)">
<path d="M34.1 22H26.9V32.8569C26.8697 34.8191 25.2697 36.4 23.3005 36.4H12.5V43.6H20.3177C22.2272 43.6 24.0586 42.8414 25.4088 41.4912L31.9912 34.9088C33.3414 33.5586 34.1 31.7272 34.1 29.8177V22Z" fill="#C5C5C5"/>
<path d="M26.9 58.0004H34.1V47.1435C34.1304 45.1813 35.7304 43.6004 37.6996 43.6004H48.5V36.4004H40.6824C38.7728 36.4004 36.9414 37.159 35.5912 38.5092L29.0088 45.0916C27.6586 46.4418 26.9 48.2732 26.9 50.1827V58.0004Z" fill="#E0E0E0"/>
</g>
<path d="M68.884 41.364H65.428V38.036C65.492 37.972 65.556 37.94 65.62 37.876L70.772 33.364H61.844V28.82H77.268V32.948L72.276 37.332C75.476 38.292 78.068 40.852 78.068 44.884C78.068 49.876 74.036 52.916 69.236 52.916C64.628 52.916 60.756 50.1 60.756 44.756H65.876C65.876 47.092 67.284 48.34 69.364 48.34C71.38 48.34 72.756 46.964 72.756 44.852C72.756 42.964 71.668 41.364 68.884 41.364ZM89.214 52.5H79.934V28.82H88.894C95.838 28.82 100.67 33.684 100.67 40.724C100.67 47.636 95.966 52.5 89.214 52.5ZM88.382 33.62H85.118V47.7H88.702C92.798 47.7 95.198 45.108 95.198 40.724C95.198 36.244 92.67 33.62 88.382 33.62ZM120.427 52.884C113.323 52.884 108.874 48.18 108.874 40.692C108.874 33.3 113.579 28.436 120.651 28.436C126.571 28.436 130.827 31.828 131.563 37.14H126.09C125.387 34.772 123.371 33.428 120.523 33.428C116.682 33.428 114.347 36.148 114.347 40.66C114.347 45.108 116.715 47.892 120.523 47.892C123.435 47.892 125.579 46.452 126.219 44.116H131.595C130.763 49.396 126.347 52.884 120.427 52.884ZM135.888 52.5H130.48L138.928 28.82H143.984L152.4 52.5H146.896L145.232 47.508H137.584L135.888 52.5ZM140.784 38.1L139.088 43.156H143.76L142.064 38.1C141.808 37.3 141.52 36.372 141.424 35.796C141.328 36.34 141.072 37.236 140.784 38.1ZM163.156 52.5H153.876V28.82H162.836C169.78 28.82 174.612 33.684 174.612 40.724C174.612 47.636 169.908 52.5 163.156 52.5ZM162.324 33.62H159.06V47.7H162.644C166.74 47.7 169.14 45.108 169.14 40.724C169.14 36.244 166.612 33.62 162.324 33.62Z" fill="#C5C5C5"/>
<defs>
<clipPath id="clip0_94_726">
<rect width="36" height="36" fill="white" transform="translate(12.5 22)"/>
</clipPath>
</defs>
</svg>
