<svg width="258" height="80" viewBox="0 0 258 80" fill="none" xmlns="http://www.w3.org/2000/svg">
<path d="M31.9636 23.8764C31.6442 23.1082 31.1132 22.0409 30.3327 20.887C29.4751 19.6194 28.3059 18.2317 26.7659 17.0128C27.5067 16.9801 28.216 17.0121 28.8721 17.0861C29.3564 17.5685 29.7865 18.0933 30.1618 18.6322C31.2074 20.1326 31.7972 21.6961 31.9523 22.6417C31.9599 22.6872 31.9761 22.7297 31.9996 22.7679C32.0232 22.7297 32.0395 22.6872 32.047 22.6417C32.202 21.6961 32.7919 20.1326 33.8374 18.6322C34.2128 18.0933 34.6429 17.5685 35.1273 17.0861C35.7833 17.0121 36.4927 16.9801 37.2333 17.0128C35.6934 18.2317 34.5243 19.6194 33.6667 20.887C32.8861 22.0409 32.3552 23.1082 32.0357 23.8764V24.0538C32.0241 24.0244 32.0121 23.9945 31.9996 23.9641C31.9873 23.9945 31.9753 24.0244 31.9636 24.0538V23.8764Z" fill="#C5C5C5"/>
<path d="M31.9999 17.8522C31.5376 17.6569 30.9115 17.455 30.1693 17.2969C30.4301 17.6043 30.6704 17.9193 30.8911 18.2359C31.3188 18.8496 31.6763 19.4761 31.9639 20.075V20.2278C31.9758 20.2022 31.9877 20.1765 31.9999 20.1508C32.012 20.1765 32.0242 20.2022 32.036 20.2278V20.075C32.3236 19.4761 32.6811 18.8496 33.1088 18.2359C33.3293 17.9193 33.5699 17.6043 33.8305 17.2969C33.0884 17.455 32.4622 17.6569 31.9999 17.8522Z" fill="#C5C5C5"/>
<path d="M29.5981 21.2758C28.6606 19.8899 27.3484 18.3744 25.5868 17.1201C25.2024 17.1734 24.8131 17.2459 24.4214 17.3405C25.7647 18.0392 26.8656 19.0941 27.8146 20.1731C28.3291 20.7582 28.8124 21.3668 29.2675 21.9398C29.4604 22.1828 29.6484 22.4194 29.8313 22.645C30.2958 23.2177 30.7283 23.7193 31.1498 24.1124C30.8514 23.3999 30.349 22.3858 29.5981 21.2758Z" fill="#C5C5C5"/>
<path d="M27.139 20.6371C26.0265 19.3722 24.7914 18.2526 23.2875 17.6768C22.7896 17.8536 22.2922 18.0702 21.801 18.3324C23.1414 18.5896 24.3015 19.324 25.3059 20.1563C26.0309 20.7571 26.7055 21.4369 27.3167 22.0528C27.5503 22.2881 27.7745 22.5142 27.9889 22.7228C28.3841 23.1076 28.745 23.4343 29.0812 23.6766C29.099 23.6894 29.1167 23.7019 29.1341 23.7141C29.3418 23.7457 29.558 23.7937 29.7852 23.8585C29.5681 23.6123 29.3521 23.3523 29.1358 23.0855C28.9427 22.8475 28.7492 22.6038 28.5532 22.3569C28.1034 21.7904 27.6401 21.2071 27.139 20.6371Z" fill="#C5C5C5"/>
<path d="M31.9998 62.2655C32.0121 62.31 32.0241 62.3548 32.0359 62.3995C32.0359 62.3142 32.0359 62.2264 32.0359 62.1368C32.2138 61.5145 32.4363 60.9033 32.6822 60.3025C32.9866 59.5588 33.3292 58.8253 33.6701 58.1041L33.7773 57.8773C34.0829 57.2318 34.3835 56.5963 34.6564 55.9616C35.8366 53.2184 36.4536 50.5954 34.5626 47.7754C33.7947 48.017 32.8851 48.1238 31.9998 48.1316C31.1146 48.1238 30.205 48.017 29.4369 47.7754C27.5461 50.5954 28.1631 53.2184 29.3431 55.9616C29.6162 56.5963 29.9168 57.2318 30.2224 57.8773L30.3296 58.1041C30.6703 58.8253 31.0131 59.5588 31.3175 60.3025C31.5633 60.9033 31.7859 61.5145 31.9638 62.1368C31.9638 62.2264 31.9638 62.3142 31.9638 62.3995C31.9756 62.3548 31.9876 62.31 31.9998 62.2655Z" fill="#C5C5C5"/>
<path d="M28.6503 47.466C26.6194 50.5583 27.3434 53.4412 28.5434 56.2307C28.8216 56.8777 29.1281 57.525 29.4327 58.1691L29.54 58.3959C29.8809 59.1171 30.2163 59.8354 30.5129 60.5601C30.8441 61.3694 31.1242 62.1803 31.3069 63.0001C30.7947 62.1152 30.2228 61.3525 29.6049 60.6782C29.3623 60.196 29.086 59.7092 28.7951 59.2214C28.5039 58.7331 28.1979 58.2434 27.8904 57.7514C27.2499 56.7265 26.6028 55.6907 26.0682 54.634C25.2815 53.0783 24.7801 51.5485 24.9367 50.0727C25.0742 48.7765 25.7241 47.4827 27.2301 46.2236C27.5126 46.744 28.0152 47.1577 28.6503 47.466Z" fill="#C5C5C5"/>
<path d="M24.0838 50.0014C24.254 48.3988 25.1085 46.847 26.9848 45.3974C26.9762 45.2906 26.9754 45.1807 26.9826 45.0678C27.0426 44.9994 27.1782 44.9159 27.4827 44.83C27.7852 44.7449 28.1504 44.6845 28.5726 44.6148C28.7118 44.5917 28.857 44.5676 29.0083 44.5415C29.5944 44.4396 30.2443 44.307 30.8233 44.065C31.2666 43.8798 31.6821 43.6247 31.9997 43.2609C32.3175 43.6247 32.7328 43.8798 33.1761 44.065C33.7553 44.307 34.4052 44.4396 34.9912 44.5415C35.1426 44.5676 35.2878 44.5917 35.427 44.6148C35.8492 44.6845 36.2142 44.7449 36.5169 44.83C36.8213 44.9159 36.9569 44.9994 37.017 45.0678C37.0242 45.1807 37.0233 45.2906 37.0148 45.3974C38.8911 46.847 39.7456 48.3988 39.9156 50.0014C40.0928 51.6692 39.5225 53.3421 38.7134 54.9421C38.1643 56.0278 37.4861 57.1132 36.8362 58.1537C36.685 58.3957 36.5349 58.6361 36.3887 58.8725C37.5986 57.9501 38.9055 57.1907 40.2375 56.4168L40.3987 56.3229C41.7582 53.2149 41.8706 50.7639 41.3722 48.8088C40.7788 46.4811 39.3068 44.8018 37.9011 43.5136C37.8981 43.5169 37.895 43.5202 37.8921 43.5233C37.8854 43.5303 37.879 43.5371 37.8727 43.5437C37.7585 43.6627 37.6548 43.7587 37.5697 43.8293C37.5229 43.8681 37.4755 43.9044 37.4315 43.9347C37.4007 43.9555 37.3699 43.975 37.3356 43.9942C37.2649 44.0352 37.1827 44.068 37.0994 44.0891C37.0247 44.1083 36.9456 44.1231 36.8612 44.1338C36.833 44.125 36.8047 44.1168 36.7768 44.109C36.4188 44.0082 35.9783 43.9354 35.5422 43.8635C35.4126 43.8421 35.2828 43.8208 35.1563 43.7988C34.5791 43.6985 34.0186 43.5799 33.542 43.3808C33.0835 43.1891 32.7261 42.9326 32.5077 42.5641L32.777 40.9916C32.8609 40.5026 33.1441 40.0565 33.5949 39.7634C33.6401 39.7339 33.6856 39.7046 33.7311 39.6749L33.7388 39.67C34.3564 39.2698 34.9988 38.8537 35.6319 38.2014C35.9257 37.8987 36.0606 37.5043 36.0606 37.1055C35.5966 37.4991 34.9784 37.7189 34.3353 37.7189H29.6642C29.0211 37.7189 28.4029 37.4991 27.9389 37.1055C27.9389 37.5043 28.0738 37.8987 28.3676 38.2014C29.0008 38.8537 29.6432 39.2698 30.2607 39.67L30.2631 39.6716C30.3104 39.7021 30.3576 39.7328 30.4047 39.7634C30.8555 40.0565 31.1387 40.5026 31.2226 40.9916L31.4919 42.5641C31.2734 42.9326 30.9161 43.1891 30.4574 43.3808C29.981 43.5799 29.4204 43.6985 28.8433 43.7988C28.7166 43.8208 28.5873 43.8421 28.4577 43.8635C28.0216 43.9354 27.5808 44.0082 27.2228 44.109C27.1949 44.1168 27.1666 44.125 27.1384 44.1338C27.0539 44.1231 26.9748 44.1083 26.9002 44.0891C26.8168 44.068 26.7346 44.0352 26.6639 43.9942C26.6297 43.975 26.5989 43.9555 26.5681 43.9347C26.5241 43.9044 26.4766 43.8681 26.4299 43.8293C26.3448 43.7587 26.241 43.6627 26.1268 43.5437C26.1176 43.534 26.108 43.524 26.0983 43.5136C24.6928 44.8018 23.2207 46.4811 22.6273 48.8088C22.1289 50.7639 22.2414 53.2149 23.6006 56.3229L23.7621 56.4168C25.0941 57.1907 26.4009 57.9501 27.6107 58.8725C27.4647 58.6361 27.315 58.3966 27.1639 58.1546C26.5139 57.1141 25.8353 56.0278 25.2862 54.9421C24.4771 53.3421 23.9068 51.6692 24.0838 50.0014Z" fill="#C5C5C5"/>
<path d="M25.5923 42.8881C24.1086 44.2309 22.4511 46.0582 21.7921 48.6426C21.3054 50.5521 21.3711 52.8436 22.407 55.6212C21.3554 54.9905 20.303 54.3138 19.2846 53.5054C18.9923 52.6974 18.8516 51.9438 18.8278 51.2391C18.7675 49.4626 19.4471 47.9486 20.4055 46.6056C21.1621 45.5455 22.075 44.613 22.9291 43.7405C23.1663 43.4983 23.3993 43.2604 23.6227 43.0261C24.0939 42.5317 24.5271 42.0481 24.8556 41.5742L24.9061 41.5753C25.0362 41.9284 25.1989 42.2649 25.3906 42.5798C25.4579 42.6901 25.5257 42.7928 25.5923 42.8881Z" fill="#C5C5C5"/>
<path d="M24.1896 41.0847C24.3919 40.7789 24.5265 40.5003 24.5919 40.2417C24.5522 39.8712 24.5505 39.4971 24.5871 39.122C24.6179 38.8087 24.6654 38.4055 24.694 38.1689L24.4445 37.9772C24.3849 37.9312 24.3264 37.8851 24.2688 37.8389C24.2474 37.9062 24.2233 37.9753 24.1962 38.0458C24.0392 38.457 23.7793 38.9453 23.3912 39.5011C22.6148 40.613 21.3132 42.0125 19.2503 43.6292C16.7787 45.5664 15.9616 47.4958 15.991 49.2062C15.9973 49.5725 16.0425 49.9316 16.1201 50.2814C16.7555 51.1235 17.4261 51.8541 18.1202 52.5033C18.0339 52.0781 17.9859 51.6645 17.9722 51.2618C17.9053 49.2885 18.6648 47.6264 19.6816 46.2018C20.4764 45.088 21.4458 44.0985 22.3049 43.2213C22.5358 42.9856 22.7588 42.7579 22.9682 42.5383C23.47 42.012 23.8925 41.5338 24.1896 41.0847Z" fill="#C5C5C5"/>
<path d="M23.5337 37.1852C23.5294 37.3218 23.4909 37.5271 23.3851 37.8043C23.2529 38.1505 23.0242 38.5866 22.6626 39.1042C21.9397 40.1395 20.6981 41.4837 18.6823 43.0636C16.2145 44.9979 15.2227 46.9954 15.1398 48.8602C14.8345 48.3782 14.5544 47.8948 14.2985 47.411C14.3111 47.094 14.3466 46.7787 14.4056 46.4658C14.7612 44.5823 15.9835 42.7328 18.3988 41.0551C20.4653 39.6198 21.6418 38.2752 22.3234 37.253C22.5381 36.931 22.703 36.6423 22.8305 36.3945C23.0363 36.6595 23.2697 36.9237 23.5337 37.1852Z" fill="#C5C5C5"/>
<path d="M22.2232 35.7235C22.2458 35.6731 22.2662 35.626 22.2846 35.5824C22.0396 35.1562 21.8582 34.7319 21.7275 34.3164C21.4543 34.6691 21.0894 35.0883 20.6231 35.5611C19.6713 36.5255 18.2802 37.73 16.3372 39.0732C14.1198 40.606 13.2254 42.5962 12.9601 44.2763C13.1513 44.856 13.3735 45.4389 13.6288 46.023C14.0984 44.0373 15.4465 42.1428 17.87 40.4594C19.8535 39.0817 20.959 37.8085 21.5861 36.868C21.8999 36.3975 22.0961 36.007 22.2232 35.7235Z" fill="#C5C5C5"/>
<path d="M21.4861 33.1915C21.3286 33.5059 20.8699 34.1592 19.9779 35.0632C19.065 35.9885 17.7142 37.1602 15.81 38.4767C14.0249 39.7105 13.0227 41.2127 12.5021 42.6543C12.1903 41.3336 12.0323 40.0395 12 38.7966C12.4715 37.7296 13.8224 36.085 16.7617 34.8657C18.6868 34.0671 20.0969 33.1211 21.0624 32.2775C21.2039 32.1538 21.3366 32.0317 21.4604 31.9121C21.4299 32.3115 21.4322 32.7414 21.4861 33.1915Z" fill="#C5C5C5"/>
<path d="M20.4609 31.7396C21.1606 31.1282 21.5808 30.6 21.7816 30.267C21.8681 29.9901 21.9706 29.7143 22.0886 29.4404C21.8604 29.353 21.6426 29.2594 21.4347 29.1602C20.6631 29.7401 19.2595 30.6327 16.3769 31.6466C14.7836 32.207 13.8065 33.0515 13.2422 33.983C12.7397 34.8127 12.5532 35.7314 12.5762 36.6138C13.4365 35.7621 14.6781 34.8945 16.3981 34.181C18.2335 33.4197 19.5632 32.5238 20.4609 31.7396Z" fill="#C5C5C5"/>
<path d="M22.4242 28.7435C19.8218 27.745 18.7882 25.88 18.7616 24.2186C18.7336 22.454 19.8069 21.0551 21.2202 20.8964C21.8523 20.8254 22.4921 21.1081 23.4258 21.8088C23.8675 22.1404 24.3503 22.5455 24.911 23.0158L24.975 23.0695C25.4363 23.4566 25.946 23.8829 26.5163 24.3369C26.2694 24.5006 26.0292 24.6853 25.7881 24.8798C25.2063 24.0307 23.6483 23.1645 20.591 23.3434C20.3551 23.3573 20.1765 23.5375 20.1921 23.7461C20.2079 23.9546 20.4116 24.1125 20.6475 24.0986C23.8187 23.913 24.8831 24.9095 25.1384 25.4199C25.0993 25.4538 25.0606 25.4878 25.0223 25.5219C24.3277 25.3396 23.4826 25.3024 22.686 25.3425C21.7919 25.3876 20.905 25.5331 20.2719 25.7196C20.0476 25.7857 19.9264 26 20.0012 26.1983C20.0759 26.3966 20.3183 26.5037 20.5426 26.4377C21.0913 26.2759 21.9015 26.1401 22.7347 26.0981C23.3098 26.0691 23.8711 26.0862 24.3508 26.1601C23.5531 26.9722 22.9048 27.8433 22.4242 28.7435Z" fill="#C5C5C5"/>
<path d="M25.564 22.5211C26.076 22.9507 26.6394 23.422 27.2763 23.9236C27.3671 23.8859 27.4595 23.8519 27.5539 23.822C27.6651 23.7868 27.7771 23.7576 27.8906 23.7344C27.7132 23.5759 27.5347 23.4068 27.3547 23.2317C27.1212 23.0042 26.8851 22.7664 26.6447 22.524C26.0428 21.9175 25.4127 21.2825 24.7203 20.7087C24.3544 20.4055 23.9651 20.1173 23.5554 19.8666C21.8734 18.8379 19.7342 19.4664 18.3883 20.9206C16.1655 23.3222 16.9436 25.2575 17.7017 27.0003C16.7659 27.1218 15.7729 27.8087 14.8821 28.9215C15.4998 28.5909 16.1413 28.3456 16.7645 28.1674C17.7293 27.8914 18.6634 27.7718 19.4209 27.7462C18.391 26.6876 17.9243 25.4229 17.9053 24.2299C17.8741 22.2756 19.0779 20.3746 21.1121 20.1462C22.1397 20.0308 23.0348 20.5234 23.9795 21.2325C24.4399 21.578 24.9384 21.9963 25.4906 22.4596L25.564 22.5211Z" fill="#C5C5C5"/>
<path d="M17.0282 28.8869C16.4057 29.0649 15.7727 29.3132 15.1745 29.6513C14.1082 30.2541 13.3836 31.317 12.9686 32.4854C12.8754 32.7477 12.7876 33.0172 12.7058 33.2934C13.3913 32.3341 14.4712 31.5016 16.06 30.9428C18.5941 30.0515 19.9191 29.2696 20.6657 28.7396C20.5539 28.6699 20.4457 28.5984 20.3413 28.5252C19.6568 28.4538 18.3833 28.4992 17.0282 28.8869Z" fill="#C5C5C5"/>
<path d="M30.399 31.0431L29.0001 35.3137C29.3863 34.114 29.2593 32.9556 29.0929 32.1534C28.5193 32.2047 28.1009 32.1662 27.7064 32.0772C26.666 31.8423 25.972 31.0277 25.3112 30.252C25.2129 30.1367 25.1155 30.0221 25.0175 29.9106C24.8833 29.7573 24.7258 29.5983 24.5383 29.4238C24.8403 29.4721 25.1357 29.5163 25.4254 29.5596C27.2169 29.8275 28.7939 30.0633 30.399 31.0431Z" fill="#C5C5C5"/>
<path d="M29.0005 35.3135C28.9951 35.3297 28.9897 35.3459 28.9843 35.362L29.0005 35.3135Z" fill="#C5C5C5"/>
<path d="M34.402 21.2758C35.3396 19.8899 36.6517 18.3744 38.4133 17.1201C38.7977 17.1734 39.187 17.2459 39.5787 17.3405C38.2354 18.0392 37.1345 19.0941 36.1855 20.1731C35.671 20.7582 35.1877 21.3668 34.7326 21.9398C34.5397 22.1828 34.3517 22.4194 34.1688 22.645C33.7043 23.2177 33.2719 23.7193 32.8503 24.1124C33.1488 23.3999 33.6511 22.3858 34.402 21.2758Z" fill="#C5C5C5"/>
<path d="M36.8613 20.6371C37.9738 19.3722 39.2089 18.2526 40.7129 17.6768C41.2107 17.8536 41.7081 18.0702 42.1993 18.3324C40.8589 18.5896 39.6988 19.324 38.6943 20.1563C37.9694 20.7571 37.2948 21.4369 36.6836 22.0528C36.4501 22.2881 36.2256 22.5142 36.0114 22.7228C35.6163 23.1076 35.2554 23.4343 34.9191 23.6766C34.9013 23.6894 34.8837 23.7019 34.8662 23.7141C34.6584 23.7457 34.4421 23.7937 34.2151 23.8585C34.4322 23.6123 34.6481 23.3523 34.8645 23.0855C35.0576 22.8475 35.2511 22.6038 35.4471 22.3569C35.8969 21.7905 36.3602 21.2071 36.8613 20.6371Z" fill="#C5C5C5"/>
<path d="M35.3498 47.466C37.3807 50.5583 36.6566 53.4412 35.4566 56.2307C35.1784 56.8777 34.8719 57.525 34.5674 58.1691L34.46 58.3959C34.1191 59.1171 33.7837 59.8354 33.4872 60.5601C33.1559 61.3694 32.8758 62.1803 32.6931 63.0001C33.2054 62.1152 33.7772 61.3525 34.3951 60.6782C34.6377 60.196 34.9141 59.7092 35.2049 59.2214C35.4962 58.7331 35.8021 58.2434 36.1096 57.7514C36.7501 56.7265 37.3973 55.6907 37.9318 54.634C38.7185 53.0783 39.22 51.5485 39.0633 50.0727C38.9258 48.7765 38.2758 47.4827 36.77 46.2236C36.4875 46.744 35.9848 47.1577 35.3498 47.466Z" fill="#C5C5C5"/>
<path d="M38.4075 42.8881C39.8912 44.2309 41.5487 46.0582 42.2076 48.6426C42.6944 50.5521 42.6287 52.8436 41.5928 55.6212C42.6444 54.9905 43.6968 54.3138 44.7152 53.5054C45.0074 52.6974 45.148 51.9438 45.172 51.2391C45.2322 49.4626 44.5527 47.9486 43.5943 46.6056C42.8377 45.5455 41.9248 44.613 41.0706 43.7405C40.8335 43.4983 40.6005 43.2604 40.3771 43.0261C39.9059 42.5317 39.4727 42.0481 39.1442 41.5742L39.0937 41.5753C38.9636 41.9284 38.8009 42.2649 38.6092 42.5798C38.5419 42.6901 38.4741 42.7928 38.4075 42.8881Z" fill="#C5C5C5"/>
<path d="M39.81 41.0847C39.6077 40.7789 39.4731 40.5003 39.4077 40.2417C39.4474 39.8712 39.4491 39.4971 39.4125 39.122C39.3817 38.8087 39.3343 38.4055 39.3057 38.1689L39.5551 37.9772C39.6147 37.9312 39.6733 37.8851 39.7308 37.8389C39.7522 37.9062 39.7763 37.9753 39.8034 38.0458C39.9604 38.457 40.2203 38.9453 40.6084 39.5011C41.3848 40.613 42.6864 42.0125 44.7491 43.6292C47.2209 45.5664 48.0381 47.4958 48.0086 49.2062C48.0023 49.5725 47.9571 49.9316 47.8795 50.2814C47.2442 51.1235 46.5735 51.8541 45.8794 52.5033C45.9657 52.0781 46.0137 51.6645 46.0274 51.2618C46.0943 49.2885 45.3348 47.6264 44.318 46.2018C43.5233 45.088 42.5539 44.0985 41.6947 43.2213C41.4638 42.9856 41.2409 42.7579 41.0315 42.5383C40.5296 42.012 40.1071 41.5338 39.81 41.0847Z" fill="#C5C5C5"/>
<path d="M40.4659 37.1852C40.4702 37.3218 40.5086 37.5271 40.6146 37.8043C40.7467 38.1505 40.9755 38.5866 41.3371 39.1042C42.0599 40.1395 43.3015 41.4837 45.3172 43.0636C47.7852 44.9979 48.777 46.9954 48.8599 48.8602C49.1651 48.3782 49.4452 47.8948 49.7012 47.411C49.6885 47.094 49.6531 46.7787 49.594 46.4658C49.2384 44.5823 48.0161 42.7328 45.6009 41.0551C43.5344 39.6198 42.3578 38.2752 41.6762 37.253C41.4614 36.931 41.2967 36.6423 41.1691 36.3945C40.9633 36.6595 40.7299 36.9237 40.4659 37.1852Z" fill="#C5C5C5"/>
<path d="M41.7764 35.7235C41.7538 35.6731 41.7335 35.626 41.715 35.5824C41.96 35.1562 42.1414 34.7319 42.2721 34.3164C42.5453 34.6691 42.9102 35.0883 43.3766 35.5611C44.3283 36.5255 45.7194 37.73 47.6625 39.0732C49.8798 40.606 50.7742 42.5962 51.0396 44.2763C50.8483 44.856 50.6261 45.4389 50.3708 46.023C49.9012 44.0373 48.5531 42.1428 46.1296 40.4594C44.1462 39.0817 43.0406 37.8085 42.4135 36.868C42.0997 36.3975 41.9035 36.007 41.7764 35.7235Z" fill="#C5C5C5"/>
<path d="M42.5138 33.1915C42.6711 33.5059 43.13 34.1592 44.0218 35.0632C44.9349 35.9885 46.2857 37.1602 48.1899 38.4767C49.975 39.7105 50.9772 41.2127 51.4977 42.6543C51.8095 41.3336 51.9677 40.0395 51.9999 38.7966C51.5283 37.7296 50.1775 36.085 47.2382 34.8657C45.3131 34.0671 43.903 33.1211 42.9375 32.2775C42.796 32.1538 42.6633 32.0317 42.5395 31.9121C42.57 32.3115 42.5677 32.7414 42.5138 33.1915Z" fill="#C5C5C5"/>
<path d="M43.5392 31.7396C42.8395 31.1282 42.4193 30.6 42.2185 30.267C42.132 29.9901 42.0295 29.7143 41.9115 29.4404C42.1397 29.353 42.3575 29.2594 42.5653 29.1602C43.337 29.7401 44.7406 30.6327 47.6232 31.6466C49.2165 32.207 50.1936 33.0515 50.7578 33.983C51.2604 34.8127 51.4469 35.7314 51.4238 36.6138C50.5636 35.7621 49.322 34.8945 47.6018 34.181C45.7666 33.4197 44.4368 32.5238 43.5392 31.7396Z" fill="#C5C5C5"/>
<path d="M41.5757 28.7435C44.1782 27.745 45.2118 25.88 45.2384 24.2186C45.2665 22.454 44.1931 21.0551 42.7798 20.8964C42.1475 20.8254 41.5079 21.1081 40.5743 21.8088C40.1326 22.1404 39.6496 22.5455 39.089 23.0158L39.025 23.0695C38.5636 23.4566 38.0541 23.8829 37.4838 24.3369C37.7306 24.5006 37.9709 24.6853 38.2119 24.8798C38.7937 24.0307 40.3517 23.1645 43.409 23.3434C43.6449 23.3573 43.8235 23.5375 43.8079 23.7461C43.7922 23.9546 43.5883 24.1125 43.3525 24.0986C40.1813 23.913 39.1169 24.9095 38.8617 25.4199C38.9007 25.4538 38.9394 25.4878 38.9777 25.5219C39.6723 25.3396 40.5174 25.3024 41.3141 25.3425C42.2081 25.3876 43.095 25.5331 43.7281 25.7196C43.9524 25.7857 44.0736 26 43.9988 26.1983C43.9242 26.3966 43.6817 26.5037 43.4575 26.4377C42.9087 26.2759 42.0986 26.1401 41.2653 26.0981C40.6902 26.0691 40.129 26.0862 39.6492 26.1601C40.4469 26.9722 41.0953 27.8433 41.5757 28.7435Z" fill="#C5C5C5"/>
<path d="M38.4358 22.5211C37.9237 22.9507 37.3605 23.422 36.7234 23.9236C36.6326 23.8859 36.5404 23.8519 36.446 23.822C36.3347 23.7868 36.2228 23.7576 36.1093 23.7344C36.2866 23.5759 36.4652 23.4068 36.645 23.2317C36.8787 23.0042 37.1146 22.7664 37.3551 22.524C37.957 21.9175 38.5872 21.2825 39.2795 20.7087C39.6454 20.4055 40.0348 20.1173 40.4445 19.8666C42.1264 18.8379 44.2657 19.4664 45.6116 20.9206C47.8344 23.3222 47.0563 25.2575 46.2981 27.0003C47.234 27.1218 48.227 27.8087 49.1178 28.9215C48.5001 28.5909 47.8584 28.3456 47.2353 28.1674C46.2704 27.8914 45.3365 27.7718 44.579 27.7462C45.6088 26.6876 46.0756 25.4229 46.0946 24.2299C46.1257 22.2756 44.9219 20.3746 42.8878 20.1462C41.86 20.0308 40.9651 20.5234 40.0204 21.2325C39.56 21.578 39.0614 21.9963 38.5093 22.4596L38.4358 22.5211Z" fill="#C5C5C5"/>
<path d="M46.9714 28.8869C47.5939 29.0649 48.2269 29.3132 48.8251 29.6513C49.8914 30.2541 50.6159 31.317 51.031 32.4854C51.1243 32.7477 51.2119 33.0172 51.2938 33.2934C50.6082 32.3341 49.5284 31.5016 47.9396 30.9428C45.4055 30.0515 44.0805 29.2696 43.3339 28.7396C43.4457 28.6699 43.5539 28.5984 43.6583 28.5252C44.3428 28.4538 45.6163 28.4992 46.9714 28.8869Z" fill="#C5C5C5"/>
<path d="M33.601 31.0431L34.9999 35.3137C35.0052 35.3299 35.0105 35.3462 35.0158 35.3622L34.9999 35.3137C34.6137 34.114 34.7407 32.9556 34.9071 32.1534C35.4807 32.2047 35.8991 32.1662 36.2936 32.0772C37.334 31.8423 38.0279 31.0277 38.6888 30.252C38.7871 30.1367 38.8845 30.0221 38.9824 29.9106C39.1167 29.7573 39.2742 29.5983 39.4616 29.4238C39.1596 29.4721 38.8643 29.5163 38.5746 29.5596C36.7831 29.8275 35.206 30.0633 33.601 31.0431Z" fill="#C5C5C5"/>
<path d="M65.5625 51.5C65.625 51.2396 65.6771 50.9271 65.7188 50.5625C65.7708 50.1875 65.7969 49.8021 65.7969 49.4062C65.7969 49.0417 65.7708 48.6875 65.7188 48.3438C65.6667 47.9896 65.6146 47.6875 65.5625 47.4375C66.0312 47.4375 66.4427 47.401 66.7969 47.3281C67.151 47.2552 67.4479 47.1354 67.6875 46.9688C67.9271 46.7917 68.1042 46.5573 68.2188 46.2656C68.3438 45.9635 68.4062 45.5885 68.4062 45.1406C68.4062 44.2656 68.3802 43.5156 68.3281 42.8906C68.2865 42.2656 68.2188 41.75 68.125 41.3438C68.0417 40.9375 67.9323 40.6302 67.7969 40.4219C67.6615 40.2031 67.5052 40.0677 67.3281 40.0156C67.5156 39.9531 67.6771 39.8438 67.8125 39.6875C67.9479 39.5208 68.0573 39.2552 68.1406 38.8906C68.2344 38.526 68.3021 38.0417 68.3438 37.4375C68.3854 36.8229 68.4062 36.0365 68.4062 35.0781C68.4062 34.6615 68.3385 34.3229 68.2031 34.0625C68.0677 33.8021 67.8854 33.599 67.6562 33.4531C67.4271 33.2969 67.1562 33.1927 66.8438 33.1406C66.5417 33.0885 66.2135 33.0625 65.8594 33.0625H65.5625C65.6146 32.8125 65.6667 32.526 65.7188 32.2031C65.7708 31.8698 65.7969 31.5208 65.7969 31.1562C65.7969 30.7708 65.7708 30.3802 65.7188 29.9844C65.6771 29.5885 65.625 29.2604 65.5625 29C65.7604 29.0729 66.0729 29.1406 66.5 29.2031C66.9271 29.2656 67.4167 29.3229 67.9688 29.375C68.5208 29.4271 69.1042 29.4688 69.7188 29.5C70.3438 29.5312 70.9531 29.5469 71.5469 29.5469C72.151 29.5469 72.7865 29.5312 73.4531 29.5C74.1302 29.4688 74.7708 29.4271 75.375 29.375C75.9896 29.3229 76.5312 29.2656 77 29.2031C77.4688 29.1406 77.8073 29.0729 78.0156 29C77.9531 29.2604 77.8958 29.5885 77.8438 29.9844C77.8021 30.3802 77.7812 30.7708 77.7812 31.1562C77.7812 31.5208 77.8073 31.8698 77.8594 32.2031C77.9115 32.526 77.9635 32.8125 78.0156 33.0625H77.6875C77.2917 33.0625 76.9115 33.0885 76.5469 33.1406C76.1823 33.1927 75.8594 33.2969 75.5781 33.4531C75.3073 33.599 75.0885 33.8021 74.9219 34.0625C74.7552 34.3229 74.6719 34.6615 74.6719 35.0781C74.6719 36.0365 74.6927 36.8229 74.7344 37.4375C74.776 38.0417 74.8385 38.526 74.9219 38.8906C75.0156 39.2552 75.1302 39.5208 75.2656 39.6875C75.401 39.8438 75.5625 39.9531 75.75 40.0156C75.5729 40.0677 75.4167 40.2031 75.2812 40.4219C75.1458 40.6302 75.0312 40.9375 74.9375 41.3438C74.8542 41.75 74.7865 42.2656 74.7344 42.8906C74.6927 43.5156 74.6719 44.2656 74.6719 45.1406C74.6719 45.6823 74.6927 46.1302 74.7344 46.4844C74.776 46.8385 74.8229 47.1458 74.875 47.4062C75.3125 47.625 75.7865 47.7812 76.2969 47.875C76.8177 47.9583 77.3021 48 77.75 48C78.4062 48 78.9531 47.9688 79.3906 47.9062C79.8281 47.8438 80.1771 47.7031 80.4375 47.4844C80.6979 47.2656 80.8802 46.9479 80.9844 46.5312C81.0885 46.1042 81.1406 45.5312 81.1406 44.8125C81.1406 44.1562 81.1094 43.6146 81.0469 43.1875C80.9844 42.75 80.9062 42.3906 80.8125 42.1094C80.7292 41.8177 80.6458 41.5833 80.5625 41.4062C80.4792 41.2188 80.4219 41.0417 80.3906 40.875C80.5885 40.9479 80.8542 41.0104 81.1875 41.0625C81.5312 41.1146 81.8854 41.1562 82.25 41.1875C82.625 41.2188 82.9896 41.2396 83.3438 41.25C83.6979 41.2604 83.9948 41.2656 84.2344 41.2656C84.4948 41.2656 84.7708 41.2604 85.0625 41.25C85.3646 41.2292 85.6562 41.2031 85.9375 41.1719C86.2188 41.1302 86.4792 41.0885 86.7188 41.0469C86.9583 40.9948 87.1615 40.9375 87.3281 40.875C87.276 41.0312 87.1771 41.3281 87.0312 41.7656C86.8854 42.2031 86.7396 42.7135 86.5938 43.2969C86.4479 43.8802 86.3177 44.5052 86.2031 45.1719C86.0885 45.8385 86.0312 46.474 86.0312 47.0781C86.0417 47.4844 86.0469 47.901 86.0469 48.3281C86.0573 48.7448 86.0729 49.151 86.0938 49.5469C86.1146 49.9323 86.1562 50.2969 86.2188 50.6406C86.2917 50.974 86.3958 51.2604 86.5312 51.5C86.3333 51.4583 85.9948 51.4219 85.5156 51.3906C85.0469 51.349 84.4948 51.3177 83.8594 51.2969C83.2344 51.2656 82.5625 51.2396 81.8438 51.2188C81.125 51.1875 80.4219 51.1667 79.7344 51.1562C79.0469 51.1354 78.4062 51.125 77.8125 51.125C77.2292 51.1146 76.75 51.1094 76.375 51.1094C76 51.1094 75.5 51.1146 74.875 51.125C74.2604 51.125 73.5833 51.1354 72.8438 51.1562C72.1146 51.1667 71.3646 51.1875 70.5938 51.2188C69.8229 51.2396 69.099 51.2656 68.4219 51.2969C67.7448 51.3177 67.151 51.349 66.6406 51.3906C66.1302 51.4219 65.7708 51.4583 65.5625 51.5ZM88.6419 32.9844C88.7044 32.8698 88.7617 32.6979 88.8137 32.4688C88.8762 32.2396 88.9231 31.974 88.9544 31.6719C88.996 31.3698 89.0273 31.0469 89.0481 30.7031C89.0794 30.349 89.095 29.9896 89.095 29.625C89.095 29.2917 89.0794 28.9688 89.0481 28.6562C89.0273 28.3333 88.996 28.0365 88.9544 27.7656C88.9127 27.4844 88.8606 27.2344 88.7981 27.0156C88.746 26.7969 88.6887 26.625 88.6262 26.5C88.8137 26.5625 89.0585 26.625 89.3606 26.6875C89.6731 26.7396 90.0169 26.7865 90.3919 26.8281C90.7773 26.8698 91.1783 26.9062 91.595 26.9375C92.0221 26.9583 92.4387 26.9688 92.845 26.9688C93.22 26.9688 93.6262 26.9635 94.0637 26.9531C94.5117 26.9323 94.9387 26.901 95.345 26.8594C95.7617 26.8177 96.1367 26.7708 96.47 26.7188C96.8033 26.6562 97.0533 26.5833 97.22 26.5C97.1575 26.6354 97.1002 26.8125 97.0481 27.0312C97.0065 27.25 96.9648 27.5 96.9231 27.7812C96.8919 28.0521 96.8658 28.349 96.845 28.6719C96.8346 28.9844 96.8294 29.3021 96.8294 29.625C96.8294 29.9583 96.8346 30.2865 96.845 30.6094C96.8658 30.9323 96.8919 31.2448 96.9231 31.5469C96.9648 31.8385 97.0065 32.1094 97.0481 32.3594C97.1002 32.6094 97.1575 32.8177 97.22 32.9844C97.0533 32.9323 96.8085 32.8906 96.4856 32.8594C96.1731 32.8177 95.8137 32.7865 95.4075 32.7656C95.0117 32.7344 94.595 32.7135 94.1575 32.7031C93.72 32.6823 93.2981 32.6719 92.8919 32.6719C92.4856 32.6719 92.069 32.6823 91.6419 32.7031C91.2148 32.7135 90.8033 32.7344 90.4075 32.7656C90.0221 32.7865 89.6731 32.8177 89.3606 32.8594C89.0481 32.8906 88.8085 32.9323 88.6419 32.9844ZM87.3919 51.5C87.4752 51.2292 87.5325 50.9062 87.5637 50.5312C87.595 50.1562 87.6106 49.7865 87.6106 49.4219C87.6106 49.0885 87.5898 48.7552 87.5481 48.4219C87.5065 48.0885 87.4544 47.7604 87.3919 47.4375C87.9752 47.4375 88.4856 47.4115 88.9231 47.3594C89.371 47.3073 89.7408 47.2188 90.0325 47.0938C90.3346 46.9583 90.5585 46.7708 90.7044 46.5312C90.8606 46.2917 90.9387 45.9844 90.9387 45.6094V41.2656C90.9283 40.8177 90.845 40.4635 90.6887 40.2031C90.5429 39.9323 90.345 39.7292 90.095 39.5938C89.845 39.4479 89.5533 39.3542 89.22 39.3125C88.8971 39.2604 88.5533 39.2344 88.1887 39.2344H87.6887C87.7721 39.026 87.845 38.7396 87.9075 38.375C87.97 38 88.0012 37.6094 88.0012 37.2031C88.0012 36.8073 87.97 36.4271 87.9075 36.0625C87.8554 35.6875 87.7825 35.3906 87.6887 35.1719C88.5742 35.2135 89.3971 35.2448 90.1575 35.2656C90.9283 35.2865 91.6523 35.2969 92.3294 35.2969C93.5898 35.2969 94.6783 35.25 95.595 35.1562C96.5117 35.0521 97.2981 34.875 97.9544 34.625C97.746 35.0312 97.5637 35.4219 97.4075 35.7969C97.2512 36.1615 97.1158 36.5521 97.0012 36.9688C96.8971 37.375 96.8137 37.8229 96.7512 38.3125C96.6992 38.8021 96.6731 39.3646 96.6731 40L96.6575 45.6094C96.6575 45.9844 96.7356 46.2917 96.8919 46.5312C97.0585 46.7708 97.2825 46.9583 97.5637 47.0938C97.845 47.2188 98.1783 47.3073 98.5637 47.3594C98.9492 47.4115 99.3658 47.4375 99.8137 47.4375C99.7512 47.6562 99.6992 47.9271 99.6575 48.25C99.6262 48.5729 99.6106 48.9167 99.6106 49.2812C99.6106 49.6771 99.621 50.0781 99.6419 50.4844C99.6731 50.8802 99.7304 51.2188 99.8137 51.5C99.5325 51.4479 99.1471 51.401 98.6575 51.3594C98.1679 51.3073 97.6315 51.2656 97.0481 51.2344C96.4752 51.1927 95.871 51.1615 95.2356 51.1406C94.6106 51.1198 94.0169 51.1094 93.4544 51.1094C92.9544 51.1094 92.4075 51.1198 91.8137 51.1406C91.2304 51.151 90.6523 51.1771 90.0794 51.2188C89.5169 51.25 88.996 51.2917 88.5169 51.3438C88.0377 51.3854 87.6627 51.4375 87.3919 51.5ZM100.471 48.9062C100.586 48.7396 100.695 48.526 100.799 48.2656C100.904 48.0052 100.992 47.6667 101.065 47.25C101.148 46.8229 101.211 46.3021 101.252 45.6875C101.305 45.0625 101.331 44.3021 101.331 43.4062C101.331 42.4688 101.305 41.7083 101.252 41.125C101.211 40.5417 101.148 40.0677 101.065 39.7031C100.992 39.3281 100.904 39.026 100.799 38.7969C100.695 38.5677 100.591 38.3438 100.487 38.125C100.904 38.0833 101.377 37.9635 101.909 37.7656C102.44 37.5573 102.95 37.2969 103.44 36.9844C103.94 36.6719 104.383 36.3125 104.768 35.9062C105.154 35.5 105.409 35.0729 105.534 34.625C105.721 34.7083 105.992 34.7865 106.346 34.8594C106.7 34.9219 107.112 34.9792 107.581 35.0312C108.049 35.0729 108.56 35.1094 109.112 35.1406C109.664 35.1615 110.237 35.1719 110.831 35.1719C111.372 35.1719 111.898 35.1562 112.409 35.125C112.919 35.0833 113.388 35.0365 113.815 34.9844C114.242 34.9323 114.612 34.875 114.924 34.8125C115.237 34.75 115.471 34.6875 115.627 34.625C115.752 35.0729 116.013 35.5 116.409 35.9062C116.805 36.3125 117.252 36.6719 117.752 36.9844C118.263 37.2969 118.779 37.5573 119.299 37.7656C119.831 37.9635 120.289 38.0833 120.674 38.125C120.57 38.3333 120.466 38.5521 120.362 38.7812C120.268 39 120.18 39.2969 120.096 39.6719C120.023 40.0365 119.961 40.5104 119.909 41.0938C119.867 41.6667 119.846 42.4115 119.846 43.3281C119.846 44.2344 119.862 45.0052 119.893 45.6406C119.924 46.2656 119.971 46.7917 120.034 47.2188C120.096 47.6458 120.18 47.9896 120.284 48.25C120.398 48.5104 120.534 48.7292 120.69 48.9062C120.43 48.9062 120.133 48.9479 119.799 49.0312C119.466 49.1042 119.117 49.2083 118.752 49.3438C118.398 49.4688 118.044 49.6198 117.69 49.7969C117.346 49.974 117.029 50.1667 116.737 50.375C116.445 50.5729 116.195 50.7812 115.987 51C115.779 51.2188 115.638 51.4375 115.565 51.6562C115.367 51.5833 115.101 51.5156 114.768 51.4531C114.435 51.3906 114.049 51.3333 113.612 51.2812C113.174 51.2292 112.695 51.1875 112.174 51.1562C111.654 51.125 111.107 51.1094 110.534 51.1094C109.971 51.1094 109.43 51.125 108.909 51.1562C108.398 51.1875 107.924 51.2292 107.487 51.2812C107.06 51.3229 106.68 51.3802 106.346 51.4531C106.023 51.5156 105.773 51.5833 105.596 51.6562C105.419 51.2708 105.122 50.9115 104.706 50.5781C104.289 50.2448 103.831 49.9531 103.331 49.7031C102.831 49.4531 102.32 49.2604 101.799 49.125C101.289 48.9792 100.846 48.9062 100.471 48.9062ZM107.581 43.3438C107.581 44.2292 107.633 44.9896 107.737 45.625C107.851 46.2604 108.034 46.7812 108.284 47.1875C108.534 47.5938 108.857 47.8958 109.252 48.0938C109.648 48.2812 110.133 48.375 110.706 48.375C111.31 48.375 111.805 48.25 112.19 48C112.575 47.7396 112.877 47.3854 113.096 46.9375C113.315 46.4896 113.466 45.9583 113.549 45.3438C113.633 44.7292 113.674 44.0625 113.674 43.3438C113.674 42.625 113.633 41.9635 113.549 41.3594C113.466 40.7448 113.315 40.2188 113.096 39.7812C112.877 39.3333 112.575 38.9896 112.19 38.75C111.805 38.5 111.31 38.375 110.706 38.375C110.133 38.375 109.648 38.4688 109.252 38.6562C108.857 38.8438 108.534 39.1406 108.284 39.5469C108.034 39.9427 107.851 40.4531 107.737 41.0781C107.633 41.7031 107.581 42.4583 107.581 43.3438ZM123.582 51.5C123.665 51.2292 123.722 50.9062 123.754 50.5312C123.785 50.1562 123.801 49.7865 123.801 49.4219C123.801 49.0885 123.78 48.7552 123.738 48.4219C123.696 48.0885 123.644 47.7604 123.582 47.4375C124.165 47.4375 124.644 47.4115 125.019 47.3594C125.405 47.3073 125.712 47.2188 125.941 47.0938C126.17 46.9583 126.327 46.7708 126.41 46.5312C126.504 46.2917 126.551 45.9844 126.551 45.6094V41.2656C126.54 40.8177 126.483 40.4635 126.379 40.2031C126.275 39.9323 126.129 39.7292 125.941 39.5938C125.764 39.4479 125.54 39.3542 125.269 39.3125C125.009 39.2604 124.712 39.2344 124.379 39.2344H123.894C123.978 39.026 124.051 38.7396 124.113 38.375C124.176 38 124.207 37.6094 124.207 37.2031C124.207 36.8073 124.176 36.4323 124.113 36.0781C124.061 35.7135 123.988 35.4219 123.894 35.2031C124.28 35.2552 124.754 35.2969 125.316 35.3281C125.879 35.3594 126.472 35.375 127.097 35.375C127.556 35.375 128.014 35.3646 128.472 35.3438C128.941 35.3229 129.394 35.2917 129.832 35.25C130.269 35.1979 130.681 35.1354 131.066 35.0625C131.452 34.9896 131.795 34.8958 132.097 34.7812C132.025 34.9896 131.972 35.2031 131.941 35.4219C131.92 35.6302 131.91 35.8438 131.91 36.0625C131.91 36.3646 131.931 36.6615 131.972 36.9531C132.014 37.2448 132.061 37.5312 132.113 37.8125C132.571 37.6667 132.946 37.4635 133.238 37.2031C133.54 36.9323 133.78 36.6458 133.957 36.3438C134.144 36.0417 134.285 35.7396 134.379 35.4375C134.483 35.125 134.566 34.8542 134.629 34.625C134.764 34.7083 134.967 34.7865 135.238 34.8594C135.519 34.9219 135.837 34.9792 136.191 35.0312C136.556 35.0729 136.941 35.1094 137.347 35.1406C137.754 35.1615 138.15 35.1719 138.535 35.1719C138.879 35.1719 139.228 35.1615 139.582 35.1406C139.936 35.1198 140.269 35.0885 140.582 35.0469C140.894 34.9948 141.176 34.9375 141.426 34.875C141.676 34.8021 141.863 34.7188 141.988 34.625C142.321 35.5104 142.738 36.2604 143.238 36.875C143.749 37.4896 144.426 37.9219 145.269 38.1719C145.103 38.3802 144.957 38.6042 144.832 38.8438C144.707 39.0833 144.597 39.3594 144.504 39.6719C144.42 39.974 144.358 40.3229 144.316 40.7188C144.275 41.1146 144.254 41.5729 144.254 42.0938V45.6094C144.254 45.9844 144.306 46.2917 144.41 46.5312C144.525 46.7708 144.691 46.9583 144.91 47.0938C145.139 47.2188 145.431 47.3073 145.785 47.3594C146.15 47.4115 146.582 47.4375 147.082 47.4375C147.051 47.5625 147.019 47.6927 146.988 47.8281C146.957 47.9635 146.931 48.1198 146.91 48.2969C146.889 48.4635 146.868 48.6615 146.847 48.8906C146.837 49.1094 146.832 49.3698 146.832 49.6719C146.832 49.974 146.847 50.3021 146.879 50.6562C146.92 51.0104 146.988 51.2917 147.082 51.5C146.759 51.4479 146.374 51.401 145.926 51.3594C145.488 51.3073 145.014 51.2656 144.504 51.2344C144.004 51.1927 143.478 51.1615 142.926 51.1406C142.384 51.1198 141.847 51.1094 141.316 51.1094C140.889 51.1094 140.446 51.1198 139.988 51.1406C139.54 51.151 139.103 51.1771 138.676 51.2188C138.249 51.25 137.847 51.2917 137.472 51.3438C137.108 51.3854 136.801 51.4375 136.551 51.5C136.582 51.375 136.608 51.2292 136.629 51.0625C136.66 50.8958 136.681 50.7135 136.691 50.5156C136.712 50.3177 136.728 50.1146 136.738 49.9062C136.749 49.6979 136.754 49.5 136.754 49.3125C136.754 49.2083 136.749 49.0677 136.738 48.8906C136.728 48.7135 136.712 48.5365 136.691 48.3594C136.681 48.1719 136.66 47.9948 136.629 47.8281C136.608 47.6615 136.582 47.5312 136.551 47.4375C136.905 47.4375 137.196 47.4219 137.426 47.3906C137.665 47.349 137.858 47.2656 138.004 47.1406C138.15 47.0156 138.254 46.8333 138.316 46.5938C138.379 46.3438 138.41 46.0156 138.41 45.6094V42.3594C138.41 41.9531 138.368 41.5677 138.285 41.2031C138.202 40.8385 138.071 40.5208 137.894 40.25C137.728 39.9688 137.509 39.75 137.238 39.5938C136.967 39.4271 136.639 39.3438 136.254 39.3438C135.993 39.3438 135.644 39.3906 135.207 39.4844C134.78 39.5677 134.353 39.7188 133.926 39.9375C133.509 40.1458 133.144 40.4323 132.832 40.7969C132.53 41.151 132.379 41.5938 132.379 42.125H132.363L132.379 45.6094C132.379 46.2865 132.587 46.7604 133.004 47.0312C133.42 47.3021 134.004 47.4375 134.754 47.4375C134.691 47.6562 134.639 47.9271 134.597 48.25C134.566 48.5729 134.551 48.9167 134.551 49.2812C134.551 49.6771 134.566 50.0781 134.597 50.4844C134.629 50.8802 134.681 51.2188 134.754 51.5C134.087 51.3958 133.295 51.3073 132.379 51.2344C131.462 51.151 130.342 51.1094 129.019 51.1094C128.519 51.1094 128.004 51.1198 127.472 51.1406C126.952 51.151 126.446 51.1771 125.957 51.2188C125.478 51.25 125.03 51.2917 124.613 51.3438C124.196 51.3854 123.853 51.4375 123.582 51.5ZM151.489 52.9531C151.489 52.224 151.474 51.5521 151.442 50.9375C151.422 50.3125 151.375 49.7708 151.302 49.3125C151.229 48.8542 151.125 48.4844 150.989 48.2031C150.864 47.9115 150.692 47.7292 150.474 47.6562C150.682 47.5521 150.849 47.3802 150.974 47.1406C151.109 46.901 151.213 46.5417 151.286 46.0625C151.37 45.5833 151.422 44.9583 151.442 44.1875C151.474 43.4167 151.489 42.4427 151.489 41.2656C151.479 40.8177 151.422 40.4635 151.317 40.2031C151.213 39.9323 151.067 39.7292 150.88 39.5938C150.703 39.4479 150.479 39.3542 150.208 39.3125C149.948 39.2604 149.651 39.2344 149.317 39.2344H148.833C148.916 39.026 148.989 38.7396 149.052 38.375C149.114 38 149.146 37.6094 149.146 37.2031C149.146 36.8073 149.114 36.4323 149.052 36.0781C149 35.7135 148.927 35.4219 148.833 35.2031C149.135 35.2448 149.453 35.276 149.786 35.2969C150.13 35.3177 150.484 35.3281 150.849 35.3281C151.599 35.3281 152.359 35.276 153.13 35.1719C153.901 35.0677 154.62 34.8854 155.286 34.625C155.317 35.0938 155.442 35.5521 155.661 36C155.88 36.4479 156.161 36.8594 156.505 37.2344C156.755 37.1302 157.01 36.9948 157.271 36.8281C157.531 36.6615 157.776 36.4688 158.005 36.25C158.245 36.0208 158.458 35.7708 158.646 35.5C158.833 35.2292 158.974 34.9375 159.067 34.625C159.182 34.6979 159.349 34.7656 159.567 34.8281C159.797 34.8906 160.057 34.9479 160.349 35C160.651 35.0521 160.969 35.0938 161.302 35.125C161.646 35.1562 161.989 35.1719 162.333 35.1719C162.989 35.1719 163.588 35.125 164.13 35.0312C164.672 34.9375 165.073 34.8021 165.333 34.625C165.51 35 165.755 35.375 166.067 35.75C166.38 36.1146 166.745 36.4531 167.161 36.7656C167.588 37.0677 168.057 37.3229 168.567 37.5312C169.088 37.7396 169.64 37.8646 170.224 37.9062C170.099 38.1771 169.953 38.7292 169.786 39.5625C169.63 40.3958 169.552 41.5469 169.552 43.0156C169.552 44.4948 169.63 45.651 169.786 46.4844C169.953 47.3177 170.099 47.8698 170.224 48.1406C169.64 48.1823 169.088 48.3229 168.567 48.5625C168.057 48.7917 167.588 49.0781 167.161 49.4219C166.745 49.7552 166.38 50.1198 166.067 50.5156C165.755 50.9115 165.51 51.2917 165.333 51.6562C165.104 51.5104 164.75 51.3854 164.271 51.2812C163.802 51.1667 163.25 51.1094 162.614 51.1094C161.958 51.1094 161.37 51.1667 160.849 51.2812C160.328 51.3854 159.942 51.5104 159.692 51.6562C159.567 51.2917 159.291 50.9219 158.864 50.5469C158.437 50.1615 157.859 49.8177 157.13 49.5156V54.1875C157.13 54.5625 157.25 54.8698 157.489 55.1094C157.739 55.349 158.073 55.5312 158.489 55.6562C158.916 55.7917 159.401 55.8854 159.942 55.9375C160.495 55.9896 161.078 56.0156 161.692 56.0156C161.63 56.2344 161.578 56.5052 161.536 56.8281C161.505 57.151 161.489 57.4948 161.489 57.8594C161.489 58.2552 161.505 58.6562 161.536 59.0625C161.567 59.4688 161.62 59.8125 161.692 60.0938C161.359 60.0417 160.916 59.9896 160.364 59.9375C159.812 59.8958 159.203 59.8542 158.536 59.8125C157.87 59.7708 157.177 59.7396 156.458 59.7188C155.739 59.6979 155.052 59.6875 154.396 59.6875C153.896 59.6875 153.375 59.6979 152.833 59.7188C152.291 59.7396 151.765 59.7656 151.255 59.7969C150.755 59.8281 150.286 59.8698 149.849 59.9219C149.422 59.974 149.073 60.0312 148.802 60.0938C148.885 59.8229 148.942 59.4948 148.974 59.1094C149.005 58.7344 149.021 58.3646 149.021 58C149.021 57.6667 149 57.3333 148.958 57C148.916 56.6667 148.864 56.3385 148.802 56.0156C149.271 56.0156 149.672 55.9896 150.005 55.9375C150.338 55.8854 150.614 55.7917 150.833 55.6562C151.052 55.5312 151.208 55.349 151.302 55.1094C151.406 54.8698 151.458 54.5625 151.458 54.1875L151.489 52.9531ZM157.349 43.0312C157.349 43.6875 157.396 44.2969 157.489 44.8594C157.583 45.4115 157.745 45.8906 157.974 46.2969C158.203 46.7031 158.51 47.0208 158.896 47.25C159.291 47.4792 159.791 47.5938 160.396 47.5938C160.969 47.5938 161.453 47.5052 161.849 47.3281C162.245 47.151 162.567 46.8802 162.817 46.5156C163.067 46.1406 163.245 45.6667 163.349 45.0938C163.463 44.5208 163.521 43.8333 163.521 43.0312C163.521 42.2292 163.463 41.5469 163.349 40.9844C163.245 40.4115 163.067 39.9427 162.817 39.5781C162.567 39.2135 162.245 38.9479 161.849 38.7812C161.453 38.6146 160.969 38.5312 160.396 38.5312C159.791 38.5312 159.291 38.6458 158.896 38.875C158.51 39.0938 158.203 39.4062 157.974 39.8125C157.745 40.2083 157.583 40.6823 157.489 41.2344C157.396 41.776 157.349 42.375 157.349 43.0312ZM170.662 49.2031C170.798 48.9635 170.897 48.6875 170.959 48.375C171.022 48.0625 171.053 47.7448 171.053 47.4219C171.053 47.0885 171.017 46.7552 170.944 46.4219C170.871 46.0885 170.777 45.8177 170.662 45.6094C170.944 45.5156 171.194 45.3646 171.412 45.1562C171.642 44.9479 171.834 44.7135 171.991 44.4531C172.157 44.1927 172.293 43.9271 172.397 43.6562C172.501 43.3854 172.569 43.1354 172.6 42.9062C172.652 42.9271 172.709 42.9375 172.772 42.9375C172.834 42.9375 172.902 42.9375 172.975 42.9375C173.746 42.9375 174.678 42.8646 175.772 42.7188C176.866 42.5729 178.048 42.3802 179.319 42.1406C179.912 42.026 180.402 41.8854 180.787 41.7188C181.173 41.5521 181.48 41.3646 181.709 41.1562C181.939 40.9375 182.095 40.7031 182.178 40.4531C182.272 40.2031 182.319 39.9375 182.319 39.6562C182.319 39.1458 182.189 38.7552 181.928 38.4844C181.678 38.2031 181.241 38.0625 180.616 38.0625C179.793 38.0625 179.183 38.2708 178.787 38.6875C178.402 39.0938 178.209 39.7656 178.209 40.7031C177.866 40.6198 177.449 40.5625 176.959 40.5312C176.47 40.4896 175.928 40.4688 175.334 40.4688C175.032 40.4688 174.725 40.474 174.412 40.4844C174.11 40.4948 173.814 40.5104 173.522 40.5312C173.23 40.5417 172.959 40.5625 172.709 40.5938C172.459 40.625 172.246 40.6615 172.069 40.7031C172.131 40.3802 172.183 40.0156 172.225 39.6094C172.277 39.2031 172.303 38.7292 172.303 38.1875C172.303 38.0104 172.298 37.849 172.287 37.7031C172.287 37.5469 172.277 37.3958 172.256 37.25C172.246 37.1042 172.225 36.9531 172.194 36.7969C172.162 36.6302 172.121 36.4479 172.069 36.25C172.506 36.25 172.985 36.2083 173.506 36.125C174.027 36.0312 174.532 35.9115 175.022 35.7656C175.522 35.6198 175.975 35.4479 176.381 35.25C176.787 35.0521 177.1 34.8438 177.319 34.625C177.506 34.7188 177.689 34.8021 177.866 34.875C178.043 34.9375 178.246 34.9948 178.475 35.0469C178.704 35.0885 178.97 35.1198 179.272 35.1406C179.574 35.1615 179.939 35.1719 180.366 35.1719C181.345 35.1719 182.178 35.125 182.866 35.0312C183.564 34.9271 184.064 34.7917 184.366 34.625C184.532 34.9375 184.772 35.2344 185.084 35.5156C185.397 35.7969 185.735 36.0417 186.1 36.25C186.475 36.4479 186.85 36.6094 187.225 36.7344C187.61 36.849 187.959 36.9062 188.272 36.9062H188.412C188.319 37.1354 188.241 37.4531 188.178 37.8594C188.116 38.2656 188.064 38.724 188.022 39.2344C187.98 39.7344 187.949 40.2656 187.928 40.8281C187.907 41.3906 187.886 41.9479 187.866 42.5C187.855 43.0417 187.85 43.5521 187.85 44.0312C187.85 44.5104 187.85 44.9167 187.85 45.25C187.85 45.6771 187.886 46.026 187.959 46.2969C188.032 46.5573 188.173 46.7604 188.381 46.9062C188.6 47.0521 188.902 47.151 189.287 47.2031C189.683 47.2552 190.194 47.2812 190.819 47.2812C190.777 47.4062 190.735 47.5625 190.694 47.75C190.662 47.9271 190.631 48.1198 190.6 48.3281C190.569 48.5365 190.543 48.7448 190.522 48.9531C190.511 49.1615 190.506 49.3542 190.506 49.5312C190.506 50.3438 190.61 51 190.819 51.5C190.569 51.3854 190.162 51.2917 189.6 51.2188C189.037 51.1458 188.423 51.1094 187.756 51.1094C187.006 51.1094 186.34 51.1458 185.756 51.2188C185.183 51.2917 184.73 51.3854 184.397 51.5C184.314 50.9271 184.152 50.4688 183.912 50.125C183.683 49.7812 183.449 49.5104 183.209 49.3125C182.845 49.4271 182.511 49.5833 182.209 49.7812C181.907 49.9688 181.636 50.1771 181.397 50.4062C181.168 50.625 180.98 50.849 180.834 51.0781C180.689 51.2969 180.595 51.4896 180.553 51.6562C180.314 51.5938 180.095 51.5312 179.897 51.4688C179.709 51.4062 179.517 51.349 179.319 51.2969C179.121 51.2344 178.907 51.1875 178.678 51.1562C178.449 51.125 178.178 51.1094 177.866 51.1094C177.543 51.1094 177.199 51.125 176.834 51.1562C176.48 51.1875 176.126 51.2344 175.772 51.2969C175.418 51.349 175.084 51.4062 174.772 51.4688C174.47 51.5312 174.209 51.5938 173.991 51.6562C173.814 51.3646 173.595 51.0781 173.334 50.7969C173.074 50.5052 172.793 50.2448 172.491 50.0156C172.199 49.776 171.892 49.5833 171.569 49.4375C171.256 49.2917 170.954 49.2135 170.662 49.2031ZM177.381 46.2969C177.381 46.5469 177.433 46.7708 177.537 46.9688C177.642 47.1562 177.772 47.3177 177.928 47.4531C178.095 47.5781 178.277 47.6771 178.475 47.75C178.673 47.8125 178.866 47.8438 179.053 47.8438C179.397 47.8438 179.746 47.776 180.1 47.6406C180.465 47.5052 180.798 47.2917 181.1 47C181.402 46.6979 181.657 46.3073 181.866 45.8281C182.074 45.349 182.199 44.7656 182.241 44.0781C181.345 44.099 180.584 44.1615 179.959 44.2656C179.345 44.3594 178.845 44.5 178.459 44.6875C178.074 44.8646 177.798 45.0885 177.631 45.3594C177.465 45.6302 177.381 45.9427 177.381 46.2969ZM191.554 32.9844C191.617 32.8698 191.674 32.6979 191.726 32.4688C191.789 32.2396 191.836 31.974 191.867 31.6719C191.909 31.3698 191.94 31.0469 191.961 30.7031C191.992 30.349 192.007 29.9896 192.007 29.625C192.007 29.2917 191.992 28.9688 191.961 28.6562C191.94 28.3333 191.909 28.0365 191.867 27.7656C191.825 27.4844 191.773 27.2344 191.711 27.0156C191.659 26.7969 191.601 26.625 191.539 26.5C191.726 26.5625 191.971 26.625 192.273 26.6875C192.586 26.7396 192.929 26.7865 193.304 26.8281C193.69 26.8698 194.091 26.9062 194.507 26.9375C194.935 26.9583 195.351 26.9688 195.757 26.9688C196.132 26.9688 196.539 26.9635 196.976 26.9531C197.424 26.9323 197.851 26.901 198.257 26.8594C198.674 26.8177 199.049 26.7708 199.382 26.7188C199.716 26.6562 199.966 26.5833 200.132 26.5C200.07 26.6354 200.013 26.8125 199.961 27.0312C199.919 27.25 199.877 27.5 199.836 27.7812C199.804 28.0521 199.778 28.349 199.757 28.6719C199.747 28.9844 199.742 29.3021 199.742 29.625C199.742 29.9583 199.747 30.2865 199.757 30.6094C199.778 30.9323 199.804 31.2448 199.836 31.5469C199.877 31.8385 199.919 32.1094 199.961 32.3594C200.013 32.6094 200.07 32.8177 200.132 32.9844C199.966 32.9323 199.721 32.8906 199.398 32.8594C199.086 32.8177 198.726 32.7865 198.32 32.7656C197.924 32.7344 197.507 32.7135 197.07 32.7031C196.632 32.6823 196.211 32.6719 195.804 32.6719C195.398 32.6719 194.981 32.6823 194.554 32.7031C194.127 32.7135 193.716 32.7344 193.32 32.7656C192.935 32.7865 192.586 32.8177 192.273 32.8594C191.961 32.8906 191.721 32.9323 191.554 32.9844ZM190.304 51.5C190.388 51.2292 190.445 50.9062 190.476 50.5312C190.507 50.1562 190.523 49.7865 190.523 49.4219C190.523 49.0885 190.502 48.7552 190.461 48.4219C190.419 48.0885 190.367 47.7604 190.304 47.4375C190.888 47.4375 191.398 47.4115 191.836 47.3594C192.284 47.3073 192.653 47.2188 192.945 47.0938C193.247 46.9583 193.471 46.7708 193.617 46.5312C193.773 46.2917 193.851 45.9844 193.851 45.6094V41.2656C193.841 40.8177 193.757 40.4635 193.601 40.2031C193.455 39.9323 193.257 39.7292 193.007 39.5938C192.757 39.4479 192.466 39.3542 192.132 39.3125C191.81 39.2604 191.466 39.2344 191.101 39.2344H190.601C190.685 39.026 190.757 38.7396 190.82 38.375C190.882 38 190.914 37.6094 190.914 37.2031C190.914 36.8073 190.882 36.4271 190.82 36.0625C190.768 35.6875 190.695 35.3906 190.601 35.1719C191.487 35.2135 192.31 35.2448 193.07 35.2656C193.841 35.2865 194.565 35.2969 195.242 35.2969C196.502 35.2969 197.591 35.25 198.507 35.1562C199.424 35.0521 200.211 34.875 200.867 34.625C200.659 35.0312 200.476 35.4219 200.32 35.7969C200.164 36.1615 200.028 36.5521 199.914 36.9688C199.81 37.375 199.726 37.8229 199.664 38.3125C199.612 38.8021 199.586 39.3646 199.586 40L199.57 45.6094C199.57 45.9844 199.648 46.2917 199.804 46.5312C199.971 46.7708 200.195 46.9583 200.476 47.0938C200.757 47.2188 201.091 47.3073 201.476 47.3594C201.862 47.4115 202.278 47.4375 202.726 47.4375C202.664 47.6562 202.612 47.9271 202.57 48.25C202.539 48.5729 202.523 48.9167 202.523 49.2812C202.523 49.6771 202.534 50.0781 202.554 50.4844C202.586 50.8802 202.643 51.2188 202.726 51.5C202.445 51.4479 202.06 51.401 201.57 51.3594C201.08 51.3073 200.544 51.2656 199.961 51.2344C199.388 51.1927 198.784 51.1615 198.148 51.1406C197.523 51.1198 196.929 51.1094 196.367 51.1094C195.867 51.1094 195.32 51.1198 194.726 51.1406C194.143 51.151 193.565 51.1771 192.992 51.2188C192.429 51.25 191.909 51.2917 191.429 51.3438C190.95 51.3854 190.575 51.4375 190.304 51.5ZM203.774 51.5C203.858 51.2292 203.915 50.9062 203.946 50.5312C203.977 50.1562 203.993 49.7865 203.993 49.4219C203.993 49.0885 203.972 48.7552 203.931 48.4219C203.889 48.0885 203.837 47.7604 203.774 47.4375C204.358 47.4375 204.837 47.4115 205.212 47.3594C205.597 47.3073 205.905 47.2188 206.134 47.0938C206.363 46.9583 206.519 46.7708 206.602 46.5312C206.696 46.2917 206.743 45.9844 206.743 45.6094V41.2656C206.733 40.8177 206.675 40.4635 206.571 40.2031C206.467 39.9323 206.321 39.7292 206.134 39.5938C205.957 39.4479 205.733 39.3542 205.462 39.3125C205.201 39.2604 204.905 39.2344 204.571 39.2344H204.087C204.17 39.026 204.243 38.7396 204.306 38.375C204.368 38 204.399 37.6094 204.399 37.2031C204.399 36.8073 204.368 36.4323 204.306 36.0781C204.254 35.7135 204.181 35.4219 204.087 35.2031C204.472 35.2552 204.946 35.2969 205.509 35.3281C206.071 35.3594 206.665 35.375 207.29 35.375C207.748 35.375 208.207 35.3646 208.665 35.3438C209.134 35.3229 209.587 35.2917 210.024 35.25C210.462 35.1979 210.873 35.1354 211.259 35.0625C211.644 34.9896 211.988 34.8958 212.29 34.7812C212.217 34.9896 212.165 35.2031 212.134 35.4219C212.113 35.6302 212.102 35.8438 212.102 36.0625C212.102 36.3646 212.123 36.6615 212.165 36.9531C212.207 37.2448 212.254 37.5312 212.306 37.8125C212.764 37.6667 213.139 37.4635 213.431 37.2031C213.733 36.9323 213.972 36.6458 214.149 36.3438C214.337 36.0417 214.477 35.7396 214.571 35.4375C214.675 35.125 214.759 34.8542 214.821 34.625C214.957 34.7083 215.16 34.7865 215.431 34.8594C215.712 34.9219 216.03 34.9792 216.384 35.0312C216.748 35.0729 217.134 35.1094 217.54 35.1406C217.946 35.1615 218.342 35.1719 218.727 35.1719C219.071 35.1719 219.42 35.1615 219.774 35.1406C220.129 35.1198 220.462 35.0885 220.774 35.0469C221.087 34.9948 221.368 34.9375 221.618 34.875C221.868 34.8021 222.056 34.7188 222.181 34.625C222.514 35.5104 222.931 36.2604 223.431 36.875C223.941 37.4896 224.618 37.9219 225.462 38.1719C225.295 38.3802 225.149 38.6042 225.024 38.8438C224.899 39.0833 224.79 39.3594 224.696 39.6719C224.613 39.974 224.55 40.3229 224.509 40.7188C224.467 41.1146 224.446 41.5729 224.446 42.0938V45.6094C224.446 45.9844 224.498 46.2917 224.602 46.5312C224.717 46.7708 224.884 46.9583 225.102 47.0938C225.332 47.2188 225.623 47.3073 225.977 47.3594C226.342 47.4115 226.774 47.4375 227.274 47.4375C227.243 47.5625 227.212 47.6927 227.181 47.8281C227.149 47.9635 227.123 48.1198 227.102 48.2969C227.082 48.4635 227.061 48.6615 227.04 48.8906C227.03 49.1094 227.024 49.3698 227.024 49.6719C227.024 49.974 227.04 50.3021 227.071 50.6562C227.113 51.0104 227.181 51.2917 227.274 51.5C226.951 51.4479 226.566 51.401 226.118 51.3594C225.681 51.3073 225.207 51.2656 224.696 51.2344C224.196 51.1927 223.67 51.1615 223.118 51.1406C222.576 51.1198 222.04 51.1094 221.509 51.1094C221.082 51.1094 220.639 51.1198 220.181 51.1406C219.733 51.151 219.295 51.1771 218.868 51.2188C218.441 51.25 218.04 51.2917 217.665 51.3438C217.3 51.3854 216.993 51.4375 216.743 51.5C216.774 51.375 216.8 51.2292 216.821 51.0625C216.852 50.8958 216.873 50.7135 216.884 50.5156C216.905 50.3177 216.92 50.1146 216.931 49.9062C216.941 49.6979 216.946 49.5 216.946 49.3125C216.946 49.2083 216.941 49.0677 216.931 48.8906C216.92 48.7135 216.905 48.5365 216.884 48.3594C216.873 48.1719 216.852 47.9948 216.821 47.8281C216.8 47.6615 216.774 47.5312 216.743 47.4375C217.097 47.4375 217.389 47.4219 217.618 47.3906C217.858 47.349 218.05 47.2656 218.196 47.1406C218.342 47.0156 218.446 46.8333 218.509 46.5938C218.571 46.3438 218.602 46.0156 218.602 45.6094V42.3594C218.602 41.9531 218.561 41.5677 218.477 41.2031C218.394 40.8385 218.264 40.5208 218.087 40.25C217.92 39.9688 217.701 39.75 217.431 39.5938C217.16 39.4271 216.832 39.3438 216.446 39.3438C216.186 39.3438 215.837 39.3906 215.399 39.4844C214.972 39.5677 214.545 39.7188 214.118 39.9375C213.701 40.1458 213.337 40.4323 213.024 40.7969C212.722 41.151 212.571 41.5938 212.571 42.125H212.556L212.571 45.6094C212.571 46.2865 212.78 46.7604 213.196 47.0312C213.613 47.3021 214.196 47.4375 214.946 47.4375C214.884 47.6562 214.832 47.9271 214.79 48.25C214.759 48.5729 214.743 48.9167 214.743 49.2812C214.743 49.6771 214.759 50.0781 214.79 50.4844C214.821 50.8802 214.873 51.2188 214.946 51.5C214.28 51.3958 213.488 51.3073 212.571 51.2344C211.655 51.151 210.535 51.1094 209.212 51.1094C208.712 51.1094 208.196 51.1198 207.665 51.1406C207.144 51.151 206.639 51.1771 206.149 51.2188C205.67 51.25 205.222 51.2917 204.806 51.3438C204.389 51.3854 204.045 51.4375 203.774 51.5ZM230.026 48.2812C230.369 47.8646 230.599 47.3333 230.713 46.6875C230.828 46.0417 230.885 45.2656 230.885 44.3594V39.8438C230.875 39.6562 230.843 39.4896 230.791 39.3438C230.75 39.1875 230.671 39.0573 230.557 38.9531C230.453 38.8385 230.307 38.75 230.119 38.6875C229.932 38.625 229.697 38.5938 229.416 38.5938C229.26 38.5938 229.088 38.6042 228.901 38.625C228.724 38.6458 228.52 38.6771 228.291 38.7188C228.343 38.4167 228.38 38.0885 228.401 37.7344C228.421 37.3802 228.432 37.0208 228.432 36.6562C228.432 36.3229 228.421 35.9948 228.401 35.6719C228.38 35.349 228.343 35.0521 228.291 34.7812C228.395 34.8542 228.526 34.9167 228.682 34.9688C228.838 35.0104 228.994 35.0469 229.151 35.0781C229.307 35.1094 229.453 35.1354 229.588 35.1562C229.724 35.1667 229.828 35.1719 229.901 35.1719C230.203 35.1719 230.427 35.0573 230.572 34.8281C230.729 34.5885 230.807 34.1771 230.807 33.5938C230.807 33.5 230.802 33.3698 230.791 33.2031C230.791 33.0365 230.786 32.8646 230.776 32.6875C230.765 32.5104 230.744 32.3438 230.713 32.1875C230.692 32.0312 230.661 31.9115 230.619 31.8281C230.703 31.849 230.786 31.8594 230.869 31.8594C230.953 31.8594 231.041 31.8594 231.135 31.8594C231.666 31.8594 232.224 31.7708 232.807 31.5938C233.401 31.4167 233.974 31.224 234.526 31.0156C235.088 30.8073 235.609 30.6146 236.088 30.4375C236.567 30.2604 236.963 30.1719 237.276 30.1719C237.192 30.4219 237.125 30.6979 237.072 31C237.02 31.3021 236.979 31.6042 236.947 31.9062C236.916 32.2083 236.89 32.5052 236.869 32.7969C236.859 33.0781 236.854 33.3177 236.854 33.5156C236.854 33.8594 236.895 34.1406 236.979 34.3594C237.062 34.5677 237.208 34.7344 237.416 34.8594C237.635 34.974 237.932 35.0573 238.307 35.1094C238.692 35.151 239.182 35.1719 239.776 35.1719C240.026 35.1719 240.317 35.1719 240.651 35.1719C240.994 35.1615 241.349 35.1458 241.713 35.125C242.078 35.0938 242.437 35.0521 242.791 35C243.156 34.9479 243.489 34.875 243.791 34.7812C243.687 35.0521 243.614 35.3698 243.572 35.7344C243.531 36.099 243.51 36.474 243.51 36.8594C243.51 37.2969 243.531 37.7031 243.572 38.0781C243.614 38.4531 243.687 38.7865 243.791 39.0781C243.437 39.0469 243.046 39.0104 242.619 38.9688C242.203 38.9271 241.786 38.8906 241.369 38.8594C240.953 38.8177 240.567 38.7865 240.213 38.7656C239.859 38.7344 239.572 38.7188 239.354 38.7188C238.833 38.7188 238.401 38.7448 238.057 38.7969C237.724 38.8385 237.458 38.9115 237.26 39.0156C237.062 39.1094 236.921 39.2344 236.838 39.3906C236.765 39.5365 236.729 39.7083 236.729 39.9062V44.0938C236.729 44.5 236.75 44.9323 236.791 45.3906C236.843 45.8385 236.932 46.2552 237.057 46.6406C237.182 47.026 237.354 47.349 237.572 47.6094C237.791 47.8594 238.072 47.9844 238.416 47.9844C238.791 47.9844 239.104 47.9115 239.354 47.7656C239.614 47.6094 239.822 47.3958 239.979 47.125C240.135 46.8542 240.244 46.5365 240.307 46.1719C240.38 45.7969 240.416 45.3854 240.416 44.9375C240.645 44.9896 240.953 45.0417 241.338 45.0938C241.724 45.1458 242.119 45.1719 242.526 45.1719C242.921 45.1719 243.291 45.1458 243.635 45.0938C243.989 45.0417 244.26 44.9896 244.447 44.9375C244.364 45.1667 244.302 45.4896 244.26 45.9062C244.229 46.3125 244.213 46.75 244.213 47.2188C244.213 47.6875 244.229 48.125 244.26 48.5312C244.291 48.9375 244.354 49.2396 244.447 49.4375H244.291C243.906 49.4375 243.489 49.5 243.041 49.625C242.604 49.7396 242.182 49.8958 241.776 50.0938C241.369 50.2917 240.994 50.5156 240.651 50.7656C240.317 51.0052 240.062 51.25 239.885 51.5C239.802 51.4375 239.64 51.3854 239.401 51.3438C239.171 51.2917 238.901 51.25 238.588 51.2188C238.286 51.1771 237.963 51.151 237.619 51.1406C237.276 51.1198 236.947 51.1094 236.635 51.1094C236.322 51.1094 235.994 51.1198 235.651 51.1406C235.317 51.151 234.989 51.1771 234.666 51.2188C234.343 51.25 234.046 51.2917 233.776 51.3438C233.515 51.3854 233.307 51.4375 233.151 51.5C233.057 51.1354 232.911 50.7812 232.713 50.4375C232.526 50.0833 232.296 49.7604 232.026 49.4688C231.755 49.1771 231.447 48.9271 231.104 48.7188C230.77 48.5104 230.411 48.3646 230.026 48.2812Z" fill="#C5C5C5"/>
</svg>
