<svg width="17" height="16" viewBox="0 0 17 16" fill="none" xmlns="http://www.w3.org/2000/svg">
<path d="M7.75 10C8.44036 10 9 9.44036 9 8.75C9 8.05964 8.44036 7.5 7.75 7.5C7.05964 7.5 6.5 8.05964 6.5 8.75C6.5 9.44036 7.05964 10 7.75 10Z" stroke="#121212" stroke-linecap="round" stroke-linejoin="round"/>
<path d="M2.5 13.9996L6.86875 9.63086" stroke="#121212" stroke-linecap="round" stroke-linejoin="round"/>
<path d="M2.5 14L11.2188 12.55C11.3048 12.5353 11.3854 12.4981 11.4524 12.4421C11.5194 12.3861 11.5703 12.3133 11.6 12.2312L13 8.5L8 3.5L4.26875 4.9C4.18653 4.93132 4.11389 4.98353 4.05799 5.05148C4.0021 5.11943 3.96488 5.20078 3.95 5.2875L2.5 14Z" stroke="#121212" stroke-linecap="round" stroke-linejoin="round"/>
<path d="M13 8.49995L14.6438 6.85619C14.691 6.80967 14.7285 6.75421 14.7541 6.69305C14.7797 6.63189 14.7929 6.56625 14.7929 6.49995C14.7929 6.43364 14.7797 6.368 14.7541 6.30684C14.7285 6.24568 14.691 6.19022 14.6438 6.1437L10.3562 1.8562C10.3097 1.80895 10.2543 1.77144 10.1931 1.74583C10.1319 1.72022 10.0663 1.70703 10 1.70703C9.93369 1.70703 9.86805 1.72022 9.80689 1.74583C9.74573 1.77144 9.69027 1.80895 9.64375 1.8562L8 3.49995" stroke="#121212" stroke-linecap="round" stroke-linejoin="round"/>
</svg>
