<svg width="111" height="19" viewBox="0 0 111 19" fill="none" xmlns="http://www.w3.org/2000/svg">
<path d="M9.10156 18V1.875H0.101562V0H20.3516V1.875H11.3516V18H9.10156ZM36.7302 13.9922C36.7302 15 36.5778 15.793 36.2731 16.3711C35.9762 16.9492 35.5192 17.3711 34.902 17.6367C34.2848 17.9023 33.4958 18.0703 32.5348 18.1406C31.5817 18.2188 30.445 18.2578 29.1247 18.2578C27.6169 18.2578 26.3356 18.1797 25.2809 18.0234C24.2341 17.875 23.3864 17.5664 22.738 17.0977C22.0973 16.6211 21.6286 15.9102 21.3317 14.9648C21.0427 14.0195 20.8981 12.7578 20.8981 11.1797C20.8981 9.64844 21.0387 8.42188 21.32 7.5C21.6091 6.57812 22.0739 5.88281 22.7145 5.41406C23.3552 4.94531 24.195 4.63281 25.2341 4.47656C26.2809 4.32031 27.5583 4.24219 29.0661 4.24219C30.7927 4.24219 32.2223 4.36328 33.3552 4.60547C34.488 4.84766 35.3317 5.30859 35.8864 5.98828C36.4489 6.66797 36.7302 7.66406 36.7302 8.97656V11.8711H23.1598C23.1677 12.8711 23.238 13.6719 23.3708 14.2734C23.5036 14.875 23.7692 15.3281 24.1677 15.6328C24.5661 15.9375 25.1598 16.1406 25.9489 16.2422C26.7458 16.3359 27.8044 16.3828 29.1247 16.3828C30.3122 16.3828 31.2692 16.3594 31.9958 16.3125C32.7302 16.2656 33.2848 16.1641 33.6598 16.0078C34.0427 15.8438 34.3005 15.6016 34.4333 15.2812C34.5661 14.9609 34.6325 14.5312 34.6325 13.9922H36.7302ZM29.0661 6.11719C27.7927 6.11719 26.7653 6.16406 25.9841 6.25781C25.2106 6.35156 24.6208 6.53516 24.2145 6.80859C23.8083 7.07422 23.5309 7.47266 23.3825 8.00391C23.2419 8.53516 23.1677 9.23438 23.1598 10.1016H34.5739V8.97656C34.5739 8.41406 34.5075 7.94922 34.3747 7.58203C34.2497 7.20703 33.9997 6.91406 33.6247 6.70312C33.2497 6.48438 32.695 6.33203 31.9606 6.24609C31.2341 6.16016 30.2692 6.11719 29.0661 6.11719ZM38.2025 18V4.5H40.4525V6.36328C40.7025 5.96484 40.9525 5.63281 41.2025 5.36719C41.4603 5.10156 41.7923 4.89062 42.1986 4.73438C42.6127 4.57812 43.1712 4.46875 43.8744 4.40625C44.5775 4.33594 45.5033 4.30078 46.6517 4.30078V6.1875C45.1048 6.1875 43.9056 6.24219 43.0541 6.35156C42.2103 6.46094 41.6048 6.64844 41.2377 6.91406C40.8705 7.17188 40.6478 7.53125 40.5697 7.99219C40.4916 8.45312 40.4525 9.03906 40.4525 9.75V18H38.2025ZM48.0772 18V4.5H50.3272V6.36328C50.5772 5.96484 50.8272 5.63281 51.0772 5.36719C51.335 5.10156 51.667 4.89062 52.0733 4.73438C52.4873 4.57812 53.0459 4.46875 53.7491 4.40625C54.4522 4.33594 55.378 4.30078 56.5264 4.30078V6.1875C54.9795 6.1875 53.7803 6.24219 52.9287 6.35156C52.085 6.46094 51.4795 6.64844 51.1123 6.91406C50.7452 7.17188 50.5225 7.53125 50.4444 7.99219C50.3662 8.45312 50.3272 9.03906 50.3272 9.75V18H48.0772ZM64.8425 18.2578C63.2253 18.2578 61.8894 18.1719 60.8347 18C59.7878 17.8359 59.0066 17.4688 58.4909 16.8984C57.9831 16.3281 57.7292 15.4414 57.7292 14.2383C57.7292 13.0117 57.9675 12.1133 58.4441 11.543C58.9284 10.9648 59.6902 10.5898 60.7292 10.418C61.7761 10.2461 63.1472 10.1602 64.8425 10.1602C66.2175 10.1602 67.3698 10.1914 68.2995 10.2539C69.2292 10.3164 70.0612 10.4258 70.7956 10.582C70.78 9.54297 70.7097 8.72656 70.5847 8.13281C70.4597 7.53125 70.2253 7.08594 69.8816 6.79688C69.5378 6.50781 69.0339 6.32422 68.3698 6.24609C67.7136 6.16016 66.8386 6.11719 65.7448 6.11719C64.4948 6.11719 63.5144 6.14453 62.8034 6.19922C62.1003 6.25391 61.5886 6.35156 61.2683 6.49219C60.948 6.63281 60.7448 6.83594 60.6589 7.10156C60.5808 7.36719 60.5417 7.71094 60.5417 8.13281H58.2917C58.2917 7.28906 58.405 6.60938 58.6316 6.09375C58.8659 5.57812 59.2605 5.1875 59.8152 4.92188C60.3698 4.65625 61.1277 4.47656 62.0886 4.38281C63.0573 4.28906 64.2761 4.24219 65.7448 4.24219C67.323 4.24219 68.5925 4.34375 69.5534 4.54688C70.5222 4.75 71.2566 5.11719 71.7566 5.64844C72.2644 6.17188 72.6042 6.90625 72.7761 7.85156C72.9558 8.79688 73.0456 10.0156 73.0456 11.5078V18H70.7956V17.0742C70.53 17.3555 70.1628 17.582 69.6941 17.7539C69.2253 17.9258 68.6003 18.0508 67.8191 18.1289C67.0456 18.2148 66.0534 18.2578 64.8425 18.2578ZM64.8425 16.4297C66.1784 16.4297 67.2448 16.4141 68.0417 16.3828C68.8386 16.3516 69.4323 16.2656 69.823 16.125C70.2214 15.9844 70.4831 15.7578 70.6081 15.4453C70.7331 15.1328 70.7956 14.6953 70.7956 14.1328V12.0586L64.8425 11.9883C63.7878 11.9727 62.9362 11.9883 62.2878 12.0352C61.6472 12.0742 61.1589 12.168 60.823 12.3164C60.487 12.457 60.2605 12.6836 60.1433 12.9961C60.0339 13.3008 59.9792 13.7148 59.9792 14.2383C59.9792 14.7461 60.0339 15.1484 60.1433 15.4453C60.2605 15.7422 60.487 15.9609 60.823 16.1016C61.1589 16.2422 61.6472 16.332 62.2878 16.3711C62.9362 16.4102 63.7878 16.4297 64.8425 16.4297ZM80.6234 18L73.5687 4.5H76.2172L82.1234 16.3125H82.1469L88.1703 4.5H90.6781L83.6234 18H80.6234ZM91.2481 18V5.25H93.4981V18H91.2481ZM91.2481 2.25V0H93.4981V2.25H91.2481ZM101.943 18.2578C100.326 18.2578 98.99 18.1719 97.9353 18C96.8884 17.8359 96.1072 17.4688 95.5916 16.8984C95.0837 16.3281 94.8298 15.4414 94.8298 14.2383C94.8298 13.0117 95.0681 12.1133 95.5447 11.543C96.0291 10.9648 96.7908 10.5898 97.8298 10.418C98.8767 10.2461 100.248 10.1602 101.943 10.1602C103.318 10.1602 104.47 10.1914 105.4 10.2539C106.33 10.3164 107.162 10.4258 107.896 10.582C107.881 9.54297 107.81 8.72656 107.685 8.13281C107.56 7.53125 107.326 7.08594 106.982 6.79688C106.638 6.50781 106.135 6.32422 105.47 6.24609C104.814 6.16016 103.939 6.11719 102.845 6.11719C101.595 6.11719 100.615 6.14453 99.9041 6.19922C99.2009 6.25391 98.6892 6.35156 98.3689 6.49219C98.0486 6.63281 97.8455 6.83594 97.7595 7.10156C97.6814 7.36719 97.6423 7.71094 97.6423 8.13281H95.3923C95.3923 7.28906 95.5056 6.60938 95.7322 6.09375C95.9666 5.57812 96.3611 5.1875 96.9158 4.92188C97.4705 4.65625 98.2283 4.47656 99.1892 4.38281C100.158 4.28906 101.377 4.24219 102.845 4.24219C104.424 4.24219 105.693 4.34375 106.654 4.54688C107.623 4.75 108.357 5.11719 108.857 5.64844C109.365 6.17188 109.705 6.90625 109.877 7.85156C110.056 8.79688 110.146 10.0156 110.146 11.5078V18H107.896V17.0742C107.631 17.3555 107.263 17.582 106.795 17.7539C106.326 17.9258 105.701 18.0508 104.92 18.1289C104.146 18.2148 103.154 18.2578 101.943 18.2578ZM101.943 16.4297C103.279 16.4297 104.345 16.4141 105.142 16.3828C105.939 16.3516 106.533 16.2656 106.924 16.125C107.322 15.9844 107.584 15.7578 107.709 15.4453C107.834 15.1328 107.896 14.6953 107.896 14.1328V12.0586L101.943 11.9883C100.888 11.9727 100.037 11.9883 99.3884 12.0352C98.7478 12.0742 98.2595 12.168 97.9236 12.3164C97.5877 12.457 97.3611 12.6836 97.2439 12.9961C97.1345 13.3008 97.0798 13.7148 97.0798 14.2383C97.0798 14.7461 97.1345 15.1484 97.2439 15.4453C97.3611 15.7422 97.5877 15.9609 97.9236 16.1016C98.2595 16.2422 98.7478 16.332 99.3884 16.3711C100.037 16.4102 100.888 16.4297 101.943 16.4297Z" fill="#121212"/>
</svg>
