<svg width="256" height="256" viewBox="0 0 256 256" fill="none" xmlns="http://www.w3.org/2000/svg">
<rect width="256" height="256" fill="#201D1D"/>
<path d="M40.9404 148.5V118.266H24.0654V114.75H62.0342V118.266H45.1592V148.5H40.9404ZM92.744 140.985C92.744 142.875 92.4584 144.362 91.8871 145.446C91.3305 146.53 90.4735 147.321 89.3163 147.819C88.1591 148.317 86.6796 148.632 84.8778 148.764C83.0907 148.91 80.9594 148.983 78.4838 148.983C75.6566 148.983 73.2543 148.837 71.2768 148.544C69.3139 148.266 67.7245 147.687 66.5087 146.808C65.3075 145.915 64.4286 144.582 63.872 142.809C63.33 141.037 63.059 138.671 63.059 135.712C63.059 132.841 63.3227 130.541 63.85 128.812C64.392 127.084 65.2636 125.78 66.4647 124.901C67.6659 124.022 69.2406 123.437 71.1889 123.144C73.1518 122.851 75.5468 122.704 78.3739 122.704C81.6112 122.704 84.2919 122.931 86.4159 123.385C88.5399 123.839 90.122 124.704 91.162 125.978C92.2167 127.252 92.744 129.12 92.744 131.581V137.008H67.2997C67.3144 138.883 67.4462 140.385 67.6952 141.513C67.9442 142.641 68.4423 143.49 69.1894 144.062C69.9364 144.633 71.0497 145.014 72.5292 145.204C74.0233 145.38 76.0082 145.468 78.4838 145.468C80.7104 145.468 82.5048 145.424 83.8671 145.336C85.244 145.248 86.2841 145.058 86.9872 144.765C87.705 144.457 88.1884 144.003 88.4374 143.402C88.6864 142.802 88.8109 141.996 88.8109 140.985H92.744ZM78.3739 126.22C75.9862 126.22 74.06 126.308 72.5951 126.483C71.1449 126.659 70.039 127.003 69.2772 127.516C68.5155 128.014 67.9955 128.761 67.7172 129.757C67.4535 130.753 67.3144 132.064 67.2997 133.69H88.7011V131.581C88.7011 130.526 88.5766 129.655 88.3275 128.966C88.0932 128.263 87.6244 127.714 86.9213 127.318C86.2182 126.908 85.1781 126.623 83.8012 126.461C82.4389 126.3 80.6298 126.22 78.3739 126.22ZM95.5047 148.5V123.188H99.7234V126.681C100.192 125.934 100.661 125.312 101.13 124.813C101.613 124.315 102.236 123.92 102.997 123.627C103.774 123.334 104.821 123.129 106.139 123.012C107.458 122.88 109.194 122.814 111.347 122.814V126.352C108.447 126.352 106.198 126.454 104.601 126.659C103.019 126.864 101.884 127.216 101.196 127.714C100.507 128.197 100.09 128.871 99.9432 129.735C99.7967 130.6 99.7234 131.698 99.7234 133.031V148.5H95.5047ZM114.02 148.5V123.188H118.238V126.681C118.707 125.934 119.176 125.312 119.645 124.813C120.128 124.315 120.751 123.92 121.512 123.627C122.289 123.334 123.336 123.129 124.654 123.012C125.973 122.88 127.709 122.814 129.862 122.814V126.352C126.962 126.352 124.713 126.454 123.116 126.659C121.534 126.864 120.399 127.216 119.711 127.714C119.022 128.197 118.605 128.871 118.458 129.735C118.312 130.6 118.238 131.698 118.238 133.031V148.5H114.02ZM145.455 148.983C142.422 148.983 139.918 148.822 137.94 148.5C135.977 148.192 134.512 147.504 133.546 146.435C132.593 145.365 132.117 143.703 132.117 141.447C132.117 139.147 132.564 137.462 133.458 136.393C134.366 135.309 135.794 134.606 137.742 134.284C139.705 133.961 142.276 133.8 145.455 133.8C148.033 133.8 150.193 133.859 151.937 133.976C153.68 134.093 155.24 134.298 156.617 134.591C156.588 132.643 156.456 131.112 156.221 129.999C155.987 128.871 155.547 128.036 154.903 127.494C154.258 126.952 153.314 126.608 152.068 126.461C150.838 126.3 149.197 126.22 147.147 126.22C144.803 126.22 142.964 126.271 141.631 126.374C140.313 126.476 139.354 126.659 138.753 126.923C138.152 127.187 137.772 127.567 137.61 128.065C137.464 128.563 137.391 129.208 137.391 129.999H133.172C133.172 128.417 133.384 127.143 133.809 126.176C134.249 125.209 134.988 124.477 136.028 123.979C137.068 123.48 138.489 123.144 140.291 122.968C142.108 122.792 144.393 122.704 147.147 122.704C150.106 122.704 152.486 122.895 154.288 123.275C156.104 123.656 157.481 124.345 158.419 125.341C159.371 126.322 160.008 127.699 160.33 129.472C160.667 131.244 160.836 133.529 160.836 136.327V148.5H156.617V146.764C156.119 147.292 155.43 147.716 154.551 148.039C153.672 148.361 152.501 148.595 151.036 148.742C149.586 148.903 147.725 148.983 145.455 148.983ZM145.455 145.556C147.96 145.556 149.959 145.526 151.453 145.468C152.947 145.409 154.061 145.248 154.793 144.984C155.54 144.721 156.031 144.296 156.265 143.71C156.5 143.124 156.617 142.304 156.617 141.249V137.36L145.455 137.228C143.477 137.199 141.88 137.228 140.665 137.316C139.463 137.389 138.548 137.565 137.918 137.843C137.288 138.107 136.863 138.532 136.644 139.118C136.439 139.689 136.336 140.465 136.336 141.447C136.336 142.399 136.439 143.153 136.644 143.71C136.863 144.267 137.288 144.677 137.918 144.94C138.548 145.204 139.463 145.373 140.665 145.446C141.88 145.519 143.477 145.556 145.455 145.556ZM175.044 148.5L161.816 123.188H166.782L177.856 145.336H177.9L189.194 123.188H193.896L180.669 148.5H175.044ZM194.965 148.5V124.594H199.184V148.5H194.965ZM194.965 118.969V114.75H199.184V118.969H194.965ZM215.018 148.983C211.986 148.983 209.481 148.822 207.504 148.5C205.541 148.192 204.076 147.504 203.109 146.435C202.157 145.365 201.681 143.703 201.681 141.447C201.681 139.147 202.128 137.462 203.021 136.393C203.929 135.309 205.358 134.606 207.306 134.284C209.269 133.961 211.84 133.8 215.018 133.8C217.596 133.8 219.757 133.859 221.5 133.976C223.243 134.093 224.804 134.298 226.18 134.591C226.151 132.643 226.019 131.112 225.785 129.999C225.551 128.871 225.111 128.036 224.467 127.494C223.822 126.952 222.877 126.608 221.632 126.461C220.402 126.3 218.761 126.22 216.71 126.22C214.367 126.22 212.528 126.271 211.195 126.374C209.877 126.476 208.917 126.659 208.317 126.923C207.716 127.187 207.335 127.567 207.174 128.065C207.028 128.563 206.954 129.208 206.954 129.999H202.736C202.736 128.417 202.948 127.143 203.373 126.176C203.812 125.209 204.552 124.477 205.592 123.979C206.632 123.48 208.053 123.144 209.855 122.968C211.671 122.792 213.956 122.704 216.71 122.704C219.669 122.704 222.05 122.895 223.851 123.275C225.668 123.656 227.045 124.345 227.982 125.341C228.934 126.322 229.572 127.699 229.894 129.472C230.231 131.244 230.399 133.529 230.399 136.327V148.5H226.18V146.764C225.682 147.292 224.994 147.716 224.115 148.039C223.236 148.361 222.064 148.595 220.599 148.742C219.149 148.903 217.289 148.983 215.018 148.983ZM215.018 145.556C217.523 145.556 219.523 145.526 221.017 145.468C222.511 145.409 223.624 145.248 224.357 144.984C225.104 144.721 225.595 144.296 225.829 143.71C226.063 143.124 226.18 142.304 226.18 141.249V137.36L215.018 137.228C213.041 137.199 211.444 137.228 210.228 137.316C209.027 137.389 208.112 137.565 207.482 137.843C206.852 138.107 206.427 138.532 206.207 139.118C206.002 139.689 205.9 140.465 205.9 141.447C205.9 142.399 206.002 143.153 206.207 143.71C206.427 144.267 206.852 144.677 207.482 144.94C208.112 145.204 209.027 145.373 210.228 145.446C211.444 145.519 213.041 145.556 215.018 145.556Z" fill="white"/>
</svg>
