<svg width="32" height="32" viewBox="0 0 32 32" fill="none" xmlns="http://www.w3.org/2000/svg">
<rect width="32" height="32" fill="#201D1D"/>
<path d="M4.86755 19V15.2207H2.75818V14.7812H7.50427V15.2207H5.3949V19H4.86755ZM11.343 18.0607C11.343 18.2969 11.3073 18.4827 11.2359 18.6182C11.1663 18.7537 11.0592 18.8526 10.9145 18.9149C10.7699 18.9771 10.5849 19.0165 10.3597 19.033C10.1363 19.0513 9.86992 19.0604 9.56047 19.0604C9.20708 19.0604 8.90679 19.0421 8.65959 19.0055C8.41423 18.9707 8.21556 18.8984 8.06359 18.7885C7.91344 18.6768 7.80358 18.5102 7.734 18.2886C7.66625 18.0671 7.63237 17.7714 7.63237 17.4015C7.63237 17.0426 7.66533 16.7551 7.73125 16.5391C7.799 16.323 7.90795 16.16 8.05809 16.0502C8.20824 15.9403 8.40508 15.8671 8.64861 15.8304C8.89397 15.7938 9.19335 15.7755 9.54674 15.7755C9.9514 15.7755 10.2865 15.8039 10.552 15.8607C10.8175 15.9174 11.0152 16.0255 11.1453 16.1848C11.2771 16.3441 11.343 16.5775 11.343 16.8851V17.5635H8.16246C8.16429 17.7979 8.18077 17.9856 8.2119 18.1266C8.24303 18.2676 8.30529 18.3738 8.39867 18.4452C8.49205 18.5166 8.63121 18.5642 8.81615 18.588C9.00292 18.61 9.25103 18.621 9.56047 18.621C9.83879 18.621 10.0631 18.6155 10.2334 18.6045C10.4055 18.5935 10.5355 18.5697 10.6234 18.5331C10.7131 18.4946 10.7735 18.4379 10.8047 18.3628C10.8358 18.2877 10.8514 18.187 10.8514 18.0607H11.343ZM9.54674 16.215C9.24828 16.215 9.00749 16.226 8.82439 16.2479C8.64312 16.2699 8.50487 16.3129 8.40966 16.377C8.31444 16.4393 8.24944 16.5327 8.21465 16.6572C8.18169 16.7817 8.16429 16.9456 8.16246 17.1488H10.8376V16.8851C10.8376 16.7533 10.8221 16.6443 10.7909 16.5583C10.7616 16.4704 10.7031 16.4017 10.6152 16.3523C10.5273 16.301 10.3973 16.2653 10.2251 16.2452C10.0549 16.225 9.82872 16.215 9.54674 16.215ZM11.6881 19V15.8359H12.2154V16.2726C12.274 16.1793 12.3326 16.1014 12.3912 16.0392C12.4516 15.9769 12.5295 15.9275 12.6247 15.8909C12.7217 15.8542 12.8526 15.8286 13.0174 15.814C13.1822 15.7975 13.3992 15.7892 13.6684 15.7892V16.2314C13.3058 16.2314 13.0248 16.2443 12.8252 16.2699C12.6274 16.2955 12.4855 16.3395 12.3995 16.4017C12.3134 16.4622 12.2612 16.5464 12.2429 16.6544C12.2246 16.7625 12.2154 16.8998 12.2154 17.0664V19H11.6881ZM14.0025 19V15.8359H14.5298V16.2726C14.5884 16.1793 14.647 16.1014 14.7056 16.0392C14.766 15.9769 14.8438 15.9275 14.9391 15.8909C15.0361 15.8542 15.167 15.8286 15.3318 15.814C15.4966 15.7975 15.7136 15.7892 15.9828 15.7892V16.2314C15.6202 16.2314 15.3391 16.2443 15.1396 16.2699C14.9418 16.2955 14.7999 16.3395 14.7138 16.4017C14.6278 16.4622 14.5756 16.5464 14.5573 16.6544C14.539 16.7625 14.5298 16.8998 14.5298 17.0664V19H14.0025ZM17.9318 19.0604C17.5528 19.0604 17.2397 19.0403 16.9925 19C16.7471 18.9615 16.564 18.8755 16.4432 18.7418C16.3242 18.6082 16.2647 18.4003 16.2647 18.1183C16.2647 17.8309 16.3205 17.6203 16.4322 17.4866C16.5457 17.3511 16.7243 17.2632 16.9678 17.223C17.2131 17.1827 17.5345 17.1625 17.9318 17.1625C18.2541 17.1625 18.5242 17.1699 18.7421 17.1845C18.96 17.1992 19.155 17.2248 19.3271 17.2614C19.3234 17.0179 19.307 16.8265 19.2777 16.6874C19.2484 16.5464 19.1934 16.442 19.1129 16.3743C19.0323 16.3065 18.9142 16.2635 18.7586 16.2452C18.6047 16.225 18.3997 16.215 18.1433 16.215C17.8504 16.215 17.6206 16.2214 17.4539 16.2342C17.2891 16.247 17.1692 16.2699 17.0941 16.3029C17.0191 16.3358 16.9714 16.3834 16.9513 16.4457C16.933 16.5079 16.9238 16.5885 16.9238 16.6874H16.3965C16.3965 16.4896 16.423 16.3303 16.4761 16.2095C16.5311 16.0886 16.6235 15.9971 16.7536 15.9348C16.8836 15.8726 17.0612 15.8304 17.2864 15.8085C17.5134 15.7865 17.7991 15.7755 18.1433 15.7755C18.5132 15.7755 18.8107 15.7993 19.036 15.8469C19.263 15.8945 19.4351 15.9806 19.5523 16.1051C19.6713 16.2278 19.751 16.3999 19.7913 16.6215C19.8334 16.843 19.8544 17.1287 19.8544 17.4784V19H19.3271V18.783C19.2648 18.8489 19.1788 18.902 19.0689 18.9423C18.9591 18.9826 18.8126 19.0119 18.6295 19.0302C18.4482 19.0504 18.2156 19.0604 17.9318 19.0604ZM17.9318 18.632C18.2449 18.632 18.4949 18.6283 18.6817 18.621C18.8684 18.6136 19.0076 18.5935 19.0991 18.5605C19.1925 18.5276 19.2539 18.4745 19.2832 18.4012C19.3125 18.328 19.3271 18.2255 19.3271 18.0936V17.6075L17.9318 17.591C17.6846 17.5873 17.4851 17.591 17.3331 17.602C17.1829 17.6111 17.0685 17.6331 16.9898 17.6679C16.911 17.7009 16.8579 17.754 16.8305 17.8272C16.8048 17.8986 16.792 17.9957 16.792 18.1183C16.792 18.2374 16.8048 18.3317 16.8305 18.4012C16.8579 18.4708 16.911 18.5221 16.9898 18.5551C17.0685 18.588 17.1829 18.6091 17.3331 18.6182C17.4851 18.6274 17.6846 18.632 17.9318 18.632ZM21.6305 19L19.9771 15.8359H20.5978L21.9821 18.6045H21.9875L23.3993 15.8359H23.9871L22.3336 19H21.6305ZM24.1207 19V16.0117H24.648V19H24.1207ZM24.1207 15.3086V14.7812H24.648V15.3086H24.1207ZM26.6273 19.0604C26.2483 19.0604 25.9352 19.0403 25.688 19C25.4426 18.9615 25.2595 18.8755 25.1386 18.7418C25.0196 18.6082 24.9601 18.4003 24.9601 18.1183C24.9601 17.8309 25.016 17.6203 25.1277 17.4866C25.2412 17.3511 25.4197 17.2632 25.6632 17.223C25.9086 17.1827 26.23 17.1625 26.6273 17.1625C26.9496 17.1625 27.2196 17.1699 27.4375 17.1845C27.6554 17.1992 27.8504 17.2248 28.0226 17.2614C28.0189 17.0179 28.0024 16.8265 27.9731 16.6874C27.9438 16.5464 27.8889 16.442 27.8083 16.3743C27.7278 16.3065 27.6097 16.2635 27.454 16.2452C27.3002 16.225 27.0951 16.215 26.8388 16.215C26.5458 16.215 26.316 16.2214 26.1494 16.2342C25.9846 16.247 25.8647 16.2699 25.7896 16.3029C25.7145 16.3358 25.6669 16.3834 25.6468 16.4457C25.6285 16.5079 25.6193 16.5885 25.6193 16.6874H25.092C25.092 16.4896 25.1185 16.3303 25.1716 16.2095C25.2265 16.0886 25.319 15.9971 25.449 15.9348C25.579 15.8726 25.7566 15.8304 25.9818 15.8085C26.2089 15.7865 26.4945 15.7755 26.8388 15.7755C27.2087 15.7755 27.5062 15.7993 27.7314 15.8469C27.9585 15.8945 28.1306 15.9806 28.2478 16.1051C28.3668 16.2278 28.4464 16.3999 28.4867 16.6215C28.5288 16.843 28.5499 17.1287 28.5499 17.4784V19H28.0226V18.783C27.9603 18.8489 27.8742 18.902 27.7644 18.9423C27.6545 18.9826 27.508 19.0119 27.3249 19.0302C27.1437 19.0504 26.9111 19.0604 26.6273 19.0604ZM26.6273 18.632C26.9404 18.632 27.1903 18.6283 27.3771 18.621C27.5639 18.6136 27.703 18.5935 27.7946 18.5605C27.888 18.5276 27.9493 18.4745 27.9786 18.4012C28.0079 18.328 28.0226 18.2255 28.0226 18.0936V17.6075L26.6273 17.591C26.3801 17.5873 26.1805 17.591 26.0285 17.602C25.8784 17.6111 25.764 17.6331 25.6852 17.6679C25.6065 17.7009 25.5534 17.754 25.5259 17.8272C25.5003 17.8986 25.4875 17.9957 25.4875 18.1183C25.4875 18.2374 25.5003 18.3317 25.5259 18.4012C25.5534 18.4708 25.6065 18.5221 25.6852 18.5551C25.764 18.588 25.8784 18.6091 26.0285 18.6182C26.1805 18.6274 26.3801 18.632 26.6273 18.632Z" fill="white"/>
</svg>
